<svg width="462" height="301" viewBox="0 0 462 301" fill="none" xmlns="http://www.w3.org/2000/svg"><rect x="7" y="20" width="178" height="56" rx="28" fill="#F3F2FF"/><path d="M78.704 42.848h-3.472V54h3.472c3.664 0 5.92-2.096 5.92-5.552 0-3.456-2.256-5.6-5.92-5.6zM76.688 52.8v-8.768h2.016c2.912 0 4.432 1.696 4.432 4.416 0 2.72-1.52 4.352-4.432 4.352h-2.016zm13.584-6.48c1.504 0 2.784.944 2.768 2.656h-5.536c.16-1.712 1.344-2.656 2.768-2.656zm4.096 4.976h-1.567c-.32.944-1.153 1.616-2.465 1.616-1.487 0-2.736-.976-2.847-2.752h7.007a7.89 7.89 0 00.049-.88c0-2.4-1.665-4.192-4.209-4.192-2.56 0-4.335 1.744-4.335 4.512 0 2.784 1.84 4.544 4.335 4.544 2.177 0 3.585-1.248 4.032-2.848zM96.739 54h1.456v-7.568h1.84v-1.2h-1.84v-.624c0-1.136.432-1.616 1.744-1.616v-1.216c-2.24 0-3.2.88-3.2 2.832v.624h-1.136v1.2h1.136V54zm4.45-4.416c0 2.72 1.808 4.56 4.144 4.56 1.616 0 2.752-.832 3.28-1.776V54h1.472v-8.768h-1.472v1.6c-.512-.912-1.632-1.744-3.264-1.744-2.352 0-4.16 1.76-4.16 4.496zm7.424.016c0 2.064-1.376 3.264-2.976 3.264s-2.96-1.216-2.96-3.28 1.36-3.232 2.96-3.232c1.6 0 2.976 1.216 2.976 3.248zm11.709-4.368h-1.456v4.816c0 1.888-1.008 2.816-2.512 2.816-1.472 0-2.448-.912-2.448-2.688v-4.944h-1.44v5.136c0 2.512 1.584 3.76 3.6 3.76 1.168 0 2.24-.512 2.8-1.424V54h1.456v-8.768zM122.779 54h1.456V42.16h-1.456V54zm4.257-2.4c0 1.76.88 2.4 2.432 2.4h1.312v-1.232h-1.072c-.896 0-1.216-.304-1.216-1.168v-5.168h2.288v-1.2h-2.288v-2.208h-1.456v2.208H125.9v1.2h1.136V51.6z" fill="#000"/><circle cx="44.5" cy="48.5" r="14.5" fill="#233FE9"/><rect x="210" y="36" width="178" height="56" rx="28" fill="#F3F2FF"/><path d="M281.336 68.144c-.661 0-1.253-.09-1.776-.272a8.648 8.648 0 01-1.568-.736c.064-.405.107-.816.128-1.232.021-.416.032-.784.032-1.104.139-.043.304-.07.496-.08a4.82 4.82 0 01.528-.032c.043.565.139 1.04.288 1.424.16.384.405.677.736.88.341.203.784.304 1.328.304.704 0 1.205-.155 1.504-.464a1.53 1.53 0 00.464-1.12c0-.437-.128-.8-.384-1.088a3.257 3.257 0 00-.992-.736 23.822 23.822 0 00-1.28-.624 9.276 9.276 0 01-1.28-.704 3.492 3.492 0 01-.992-1.024c-.256-.405-.384-.923-.384-1.552 0-.63.139-1.163.416-1.6a2.613 2.613 0 011.152-.992c.501-.235 1.088-.352 1.76-.352a6.074 6.074 0 012.048.352c.299.107.539.224.72.352 0 .33.005.704.016 1.12.011.416.037.763.08 1.04a2.208 2.208 0 01-.496.128 3.313 3.313 0 01-.544.048c-.107-.608-.245-1.072-.416-1.392-.171-.32-.379-.539-.624-.656a1.713 1.713 0 00-.832-.192c-.533 0-.955.128-1.264.384-.299.256-.448.619-.448 1.088 0 .448.128.821.384 1.12.256.299.587.555.992.768.405.213.832.427 1.28.64a9.99 9.99 0 011.296.72c.416.267.752.597 1.008.992s.384.89.384 1.488a3.14 3.14 0 01-.4 1.552c-.267.47-.677.848-1.232 1.136-.544.277-1.253.416-2.128.416zm8.667 0c-.8 0-1.461-.17-1.984-.512a3.27 3.27 0 01-1.168-1.376 4.636 4.636 0 01-.384-1.904c0-.704.139-1.344.416-1.92a3.386 3.386 0 011.184-1.376c.523-.352 1.136-.528 1.84-.528.715 0 1.291.15 1.728.448.438.299.763.699.976 1.2.224.501.352 1.067.384 1.696a1.22 1.22 0 01-.272.608h-.88c-.362 0-.773.005-1.232.016-.448 0-.912.01-1.392.032-.469.01-.912.027-1.328.048v-.88h3.296c0-.704-.122-1.27-.368-1.696-.234-.427-.576-.64-1.024-.64-.256 0-.501.08-.736.24-.234.16-.426.432-.576.816-.149.373-.224.896-.224 1.568 0 .533.07 1.045.208 1.536.139.48.374.875.704 1.184.331.299.8.448 1.408.448.352 0 .699-.075 1.04-.224a2.79 2.79 0 00.928-.64.633.633 0 01.24.24c.086.117.134.23.144.336-.373.459-.805.79-1.296.992-.48.192-1.024.288-1.632.288zm7.078-2.624c0 .459.048.81.144 1.056a.885.885 0 00.464.512c.224.096.512.16.864.192.032.096.053.208.064.336.021.128.032.272.032.432a51.92 51.92 0 00-.608-.032c-.235 0-.485-.005-.752-.016h-2.064c-.437.01-.779.027-1.024.048 0-.17.005-.32.016-.448a.879.879 0 01.08-.32c.288-.021.507-.075.656-.16a.702.702 0 00.336-.432c.064-.203.096-.49.096-.864v-1.456h1.696v1.152zm0-2.208v1.296h-1.696v-1.776l1.696-1.552c0 .33-.032.64-.096.928-.064.288-.128.587-.192.896l.288.208zm-.352-.112c.107-.288.192-.533.256-.736.075-.213.149-.384.224-.512.235-.373.512-.683.832-.928a1.857 1.857 0 011.136-.368c.405 0 .773.128 1.104.384a21.536 21.536 0 00-.112 1.36v.656a3.498 3.498 0 01-1.04.16c-.021-.48-.101-.8-.24-.96a.609.609 0 00-.512-.256c-.171 0-.363.101-.576.304-.203.203-.373.47-.512.8a2.78 2.78 0 00-.208 1.088l-.352-.992zm-1.344 1.408v-1.664a2.16 2.16 0 00-.08-.656.573.573 0 00-.32-.384c-.171-.085-.432-.133-.784-.144 0-.128.011-.25.032-.368.021-.117.059-.224.112-.32a7.477 7.477 0 001.296-.192c.459-.107.811-.224 1.056-.352a.606.606 0 01.272.224c.075.107.112.283.112.528l-1.696 3.328zm5.785 3.44c0-.128.005-.261.016-.4.021-.139.048-.261.08-.368.426-.01.714-.112.864-.304.149-.192.224-.555.224-1.088v-2.992c0-.256-.027-.464-.08-.624a.575.575 0 00-.32-.384c-.171-.085-.438-.128-.8-.128a2 2 0 01.032-.368c.032-.117.074-.224.128-.32.213 0 .48-.027.8-.08.32-.053.624-.123.912-.208.288-.085.501-.17.64-.256a.611.611 0 01.272.224c.074.107.112.267.112.48v4.656c0 .533.069.896.208 1.088.149.192.4.293.752.304.032.107.053.235.064.384.01.15.016.277.016.384l-.576-.032c-.214 0-.438-.005-.672-.016h-1.408c-.235.01-.464.016-.688.016-.214.01-.406.021-.576.032zm1.888-9.168c-.31 0-.566-.09-.768-.272a.958.958 0 01-.288-.704c0-.32.106-.576.32-.768.213-.192.464-.288.752-.288.33 0 .592.096.784.288.192.192.288.443.288.752a.945.945 0 01-.32.704 1.073 1.073 0 01-.768.288zm7.782 1.952c0 .128-.01.267-.032.416a1.16 1.16 0 01-.128.4c-.309 0-.602.021-.88.064a4.48 4.48 0 00-.768.16v-1.04h1.808zm-3.36-.608c0-.81.16-1.488.48-2.032.331-.544.758-.95 1.28-1.216a3.713 3.713 0 011.68-.4c.427 0 .763.043 1.008.128.256.075.475.17.656.288a29.836 29.836 0 00-.064 1.92c-.149.053-.325.09-.528.112a4.941 4.941 0 01-.544.032c0-.459-.09-.832-.272-1.12-.181-.288-.48-.432-.896-.432a.89.89 0 00-.656.256c-.16.16-.277.405-.352.736-.074.32-.112.725-.112 1.216v4.96h-1.68v-4.448zm.272.608v1.024a4.614 4.614 0 00-.832-.176 6.3 6.3 0 00-.704-.048c0-.15.016-.288.048-.416.032-.139.091-.267.176-.384h1.312zm1.408 4.688c0 .459.048.81.144 1.056a.947.947 0 00.48.512c.224.096.507.16.848.192.043.096.07.208.08.336.011.128.016.272.016.432a50.78 50.78 0 00-.608-.032 18.3 18.3 0 01-.752-.016h-2.064c-.437.01-.773.027-1.008.048 0-.17.006-.32.016-.448a1.22 1.22 0 01.064-.32c.288-.021.512-.075.672-.16a.702.702 0 00.336-.432c.064-.203.096-.49.096-.864v-1.456h1.68v1.152zm7.75 2.528c0-.17.005-.32.016-.448s.032-.235.064-.32c.288-.021.512-.075.672-.16a.702.702 0 00.336-.432c.064-.203.096-.49.096-.864V59.36c0-.384-.032-.672-.096-.864a.702.702 0 00-.336-.432c-.149-.085-.368-.139-.656-.16a1.036 1.036 0 01-.08-.336 5.103 5.103 0 01-.016-.432l.656.032c.256 0 .523.005.8.016h1.488v8.336c0 .459.048.81.144 1.056a.947.947 0 00.48.512c.224.096.512.16.864.192.032.096.053.208.064.336.011.128.016.272.016.432-.16-.01-.363-.021-.608-.032a19.4 19.4 0 01-.768-.016h-2.096c-.459.01-.805.027-1.04.048zm6.528-3.28a5.85 5.85 0 01-.448-.016 1.643 1.643 0 01-.384-.08c-.043-.533-.187-.896-.432-1.088-.235-.192-.667-.288-1.296-.288h-1.12v-.768h1.12c.64 0 1.077-.085 1.312-.256.245-.17.373-.507.384-1.008a2.917 2.917 0 01.864-.128c-.011.267-.021.555-.032.864v1.872c.011.33.021.63.032.896zm.336-4.848a2.696 2.696 0 00-.272-.96c-.149-.31-.405-.56-.768-.752-.352-.203-.859-.304-1.52-.304h-1.808l.384-.72h2.16c.597-.01 1.088-.021 1.472-.032.395-.01.683-.016.864-.016.021.235.048.512.08.832.032.32.069.635.112.944.043.299.091.565.144.8a.899.899 0 01-.368.16 2.152 2.152 0 01-.48.048zm4.968 8.224c-.757 0-1.418-.155-1.984-.464a3.382 3.382 0 01-1.296-1.328c-.298-.565-.448-1.232-.448-2 0-.747.16-1.408.48-1.984a3.54 3.54 0 011.344-1.344c.566-.33 1.206-.496 1.92-.496.8 0 1.478.16 2.032.48.555.32.976.763 1.264 1.328.288.565.432 1.227.432 1.984 0 .736-.154 1.397-.464 1.984a3.417 3.417 0 01-1.312 1.36c-.554.32-1.21.48-1.968.48zm.16-.848c.598 0 1.04-.25 1.328-.752.288-.512.432-1.173.432-1.984 0-.661-.096-1.232-.288-1.712-.181-.49-.432-.859-.752-1.104a1.567 1.567 0 00-1.024-.384c-.586 0-1.024.245-1.312.736-.288.49-.432 1.12-.432 1.888 0 .683.08 1.275.24 1.776.171.501.411.885.72 1.152.31.256.672.384 1.088.384zm5.936-2.688v-1.664a2.16 2.16 0 00-.08-.656.573.573 0 00-.32-.384c-.171-.085-.432-.133-.784-.144 0-.128.011-.25.032-.368.021-.117.059-.224.112-.32a7.477 7.477 0 001.296-.192c.459-.107.811-.224 1.056-.352a.606.606 0 01.272.224c.075.107.112.283.112.528l-1.696 3.328zm6.528 1.28c0 .544.069.912.208 1.104.149.192.384.288.704.288.032.107.053.219.064.336.011.117.016.261.016.432a14.874 14.874 0 00-.832-.048h-1.696c-.245.01-.48.016-.704.016-.224.01-.421.021-.592.032 0-.16.005-.304.016-.432s.037-.24.08-.336c.352 0 .613-.101.784-.304.171-.203.256-.576.256-1.12v-2.224c0-.736-.128-1.237-.384-1.504-.256-.267-.597-.4-1.024-.4-.267 0-.533.09-.8.272-.267.181-.491.464-.672.848-.171.384-.256.89-.256 1.52v1.52c0 .533.075.901.224 1.104.16.192.432.288.816.288.043.107.069.224.08.352.011.117.016.256.016.416a31.65 31.65 0 00-.56-.032c-.224 0-.459-.005-.704-.016h-1.44c-.245.01-.485.016-.72.016-.235.01-.432.021-.592.032 0-.16.005-.304.016-.432.021-.139.048-.25.08-.336.416 0 .699-.096.848-.288.16-.203.24-.57.24-1.104v-2.944l1.696-1.664c0 .128-.011.272-.032.432-.011.16-.043.33-.096.512.043-.075.085-.155.128-.24a1.66 1.66 0 01.176-.272c.192-.245.485-.49.88-.736.395-.245.864-.368 1.408-.368.416 0 .805.085 1.168.256.363.16.651.432.864.816.224.373.336.885.336 1.536v2.672zm4.948 2.256c-.661 0-1.157-.17-1.488-.512-.32-.341-.48-.901-.48-1.68v-4.128a3.574 3.574 0 00-.512-.128 3.248 3.248 0 00-.64-.08c0-.15.011-.283.032-.4.022-.117.059-.245.112-.384h1.008v-2.064c.256-.053.507-.144.752-.272.256-.128.47-.267.64-.416a.39.39 0 01.24.208c.043.096.064.32.064.672v1.872h2.048c0 .128-.01.261-.032.4a1.666 1.666 0 01-.112.4c-.384 0-.736.021-1.056.064-.309.043-.592.09-.848.144v3.792c0 .373.032.677.096.912.075.224.176.39.304.496a.79.79 0 00.496.16c.214 0 .4-.027.56-.08.171-.064.331-.155.48-.272.139.17.219.373.24.608-.181.192-.453.357-.816.496a3.246 3.246 0 01-1.088.192zm8.167-7.072a20.23 20.23 0 00-.016.832c0 .288.021.57.064.848a1.859 1.859 0 01-.432.16c-.16.032-.326.048-.496.048a1.889 1.889 0 00-.256-.816 1.708 1.708 0 00-.576-.624 1.577 1.577 0 00-.88-.24c-.31 0-.555.075-.736.224a.727.727 0 00-.272.592c0 .17.037.325.112.464.074.128.245.272.512.432.266.15.677.336 1.232.56.586.213 1.045.432 1.376.656.33.213.565.453.704.72.149.256.224.576.224.96 0 .448-.134.843-.4 1.184-.256.341-.619.608-1.088.8-.459.181-.982.272-1.568.272-.651 0-1.174-.048-1.568-.144a7.235 7.235 0 01-1.152-.432 3.73 3.73 0 00.048-.64c.01-.245.016-.485.016-.72a5.22 5.22 0 00-.032-.624.939.939 0 01.416-.16 3.03 3.03 0 01.528-.048c.085.65.282 1.136.592 1.456.32.32.741.48 1.264.48.394 0 .704-.085.928-.256a.852.852 0 00.352-.704.823.823 0 00-.144-.48c-.086-.139-.246-.272-.48-.4-.235-.139-.587-.299-1.056-.48a11.121 11.121 0 01-1.36-.64c-.342-.203-.592-.443-.752-.72-.16-.288-.24-.65-.24-1.088 0-.341.085-.64.256-.896.17-.256.389-.464.656-.624a3.02 3.02 0 01.896-.368 3.79 3.79 0 01.944-.128c.512 0 .954.048 1.328.144.373.085.725.219 1.056.4z" fill="#000"/><circle cx="247.5" cy="64.5" r="14.5" fill="#233FE9"/><rect x="37" y="91" width="178" height="56" rx="28" fill="#F6EDFD"/><path d="M105.184 125v-11.2h3.68c.875 0 1.595.144 2.16.432.565.288.981.677 1.248 1.168.277.491.416 1.045.416 1.664 0 .608-.133 1.157-.4 1.648-.267.491-.683.885-1.248 1.184-.565.288-1.291.432-2.176.432h-2.336V125h-1.344zm1.344-5.808h2.304c.896 0 1.531-.187 1.904-.56.384-.384.576-.907.576-1.568 0-.672-.192-1.195-.576-1.568-.373-.384-1.008-.576-1.904-.576h-2.304v4.272zm10.738 6c-.939 0-1.686-.283-2.24-.848-.555-.576-.832-1.456-.832-2.64v-4.64h1.344v4.496c0 1.653.677 2.48 2.032 2.48.693 0 1.264-.245 1.712-.736.458-.501.688-1.211.688-2.128v-4.112h1.344V125h-1.216l-.096-1.424a2.76 2.76 0 01-1.104 1.184 3.11 3.11 0 01-1.632.432zm6.26-.192v-7.936h1.216l.112 1.52a2.873 2.873 0 011.12-1.248c.501-.309 1.12-.464 1.856-.464v1.408h-.368c-.469 0-.901.085-1.296.256-.395.16-.709.437-.944.832-.235.395-.352.939-.352 1.632v4h-1.344zm5.812 3.52v-11.456h1.216l.128 1.312c.256-.384.619-.731 1.088-1.04.48-.309 1.088-.464 1.824-.464.79 0 1.478.181 2.064.544.587.363 1.04.859 1.36 1.488.331.629.496 1.344.496 2.144s-.165 1.515-.496 2.144a3.652 3.652 0 01-1.376 1.472c-.586.352-1.274.528-2.064.528-.65 0-1.232-.133-1.744-.4a2.784 2.784 0 01-1.152-1.12v4.848h-1.344zm4.096-4.496c.534 0 1.003-.123 1.408-.368.406-.256.726-.608.96-1.056.235-.448.352-.971.352-1.568 0-.597-.117-1.12-.352-1.568a2.577 2.577 0 00-.96-1.04c-.405-.256-.874-.384-1.408-.384-.533 0-1.002.128-1.408.384a2.591 2.591 0 00-.96 1.04c-.234.448-.352.971-.352 1.568 0 .597.118 1.12.352 1.568.235.448.555.8.96 1.056.406.245.875.368 1.408.368zm5.951.976v-11.52h1.344V125h-1.344zm7.115.192c-.757 0-1.429-.171-2.016-.512a3.8 3.8 0 01-1.392-1.456c-.331-.619-.496-1.349-.496-2.192 0-.832.165-1.557.496-2.176a3.556 3.556 0 011.376-1.456c.597-.352 1.285-.528 2.064-.528.768 0 1.429.176 1.984.528.565.341.997.795 1.296 1.36a3.84 3.84 0 01.432 2.176v.4h-6.32c.032.608.171 1.115.416 1.52.256.395.571.693.944.896.384.203.789.304 1.216.304.555 0 1.019-.128 1.392-.384s.645-.603.816-1.04h1.328a3.606 3.606 0 01-1.232 1.84c-.597.48-1.365.72-2.304.72zm0-7.184a2.69 2.69 0 00-1.712.592c-.491.384-.773.949-.848 1.696h4.992c-.032-.715-.277-1.275-.736-1.68-.459-.405-1.024-.608-1.696-.608z" fill="#000"/><circle cx="74.5" cy="119.5" r="14.5" fill="#64318E"/><rect x="74" y="162" width="178" height="56" rx="28" fill="#E1F8ED"/><path d="M147.848 197.192c-.843 0-1.616-.149-2.32-.448a5.708 5.708 0 01-1.84-1.28 6.06 6.06 0 01-1.2-1.952c-.288-.747-.432-1.568-.432-2.464 0-.896.144-1.717.432-2.464a6.06 6.06 0 011.2-1.952 5.4 5.4 0 011.84-1.28 5.709 5.709 0 012.32-.464c.811 0 1.536.144 2.176.432a5.028 5.028 0 011.632 1.12c.448.448.768.923.96 1.424l-1.152.56a3.712 3.712 0 00-1.376-1.712c-.619-.416-1.365-.624-2.24-.624-.875 0-1.653.208-2.336.624a4.287 4.287 0 00-1.6 1.744c-.384.736-.576 1.6-.576 2.592 0 .981.192 1.845.576 2.592a4.287 4.287 0 001.6 1.744c.683.405 1.461.608 2.336.608.779 0 1.477-.171 2.096-.512a3.897 3.897 0 001.488-1.392c.363-.597.544-1.28.544-2.048v-.656l.576.576h-4.704v-1.12h5.408v.992c0 .779-.139 1.499-.416 2.16a5.181 5.181 0 01-2.88 2.816 5.72 5.72 0 01-2.112.384zm7.525-.192v-8.576h1.2v1.408l-.16-.208c.202-.405.506-.725.912-.96.416-.235.917-.352 1.504-.352h.544v1.2h-.752c-.619 0-1.115.192-1.488.576-.374.384-.56.928-.56 1.632V197h-1.2zm9.31.192c-.8 0-1.525-.192-2.176-.576a4.26 4.26 0 01-1.52-1.616c-.373-.683-.56-1.456-.56-2.32 0-.864.181-1.627.544-2.288.363-.672.853-1.2 1.472-1.584a3.973 3.973 0 012.112-.576c.619 0 1.168.117 1.648.352.491.224.907.533 1.248.928.341.384.603.821.784 1.312a4.184 4.184 0 01.256 1.856 6.276 6.276 0 01-.048.4h-7.248v-1.12h6.56l-.576.48c.096-.587.027-1.109-.208-1.568a2.585 2.585 0 00-.976-1.104 2.589 2.589 0 00-1.44-.416 2.83 2.83 0 00-1.488.416c-.448.277-.8.667-1.056 1.168-.256.491-.357 1.077-.304 1.76-.053.683.053 1.28.32 1.792.277.501.651.891 1.12 1.168.48.277.992.416 1.536.416.629 0 1.157-.149 1.584-.448a3.602 3.602 0 001.04-1.12l1.024.544a3.344 3.344 0 01-.784 1.072 4.3 4.3 0 01-1.264.784 4.272 4.272 0 01-1.6.288zm9.844 0a4.2 4.2 0 01-2.176-.576 4.26 4.26 0 01-1.52-1.616c-.374-.683-.56-1.456-.56-2.32 0-.864.181-1.627.544-2.288.362-.672.853-1.2 1.472-1.584a3.973 3.973 0 012.112-.576c.618 0 1.168.117 1.648.352.49.224.906.533 1.248.928.341.384.602.821.784 1.312a4.184 4.184 0 01.256 1.856 6.276 6.276 0 01-.048.4h-7.248v-1.12h6.56l-.576.48c.096-.587.026-1.109-.208-1.568a2.592 2.592 0 00-.976-1.104 2.589 2.589 0 00-1.44-.416c-.534 0-1.03.139-1.488.416-.448.277-.8.667-1.056 1.168-.256.491-.358 1.077-.304 1.76-.054.683.053 1.28.32 1.792.277.501.65.891 1.12 1.168.48.277.992.416 1.536.416.629 0 1.157-.149 1.584-.448a3.614 3.614 0 001.04-1.12l1.024.544a3.344 3.344 0 01-.784 1.072c-.352.32-.774.581-1.264.784a4.275 4.275 0 01-1.6.288zm5.939-.192v-8.576h1.2v1.664l-.272-.064c.214-.555.56-.992 1.04-1.312.491-.32 1.056-.48 1.696-.48.608 0 1.152.139 1.632.416a2.98 2.98 0 011.152 1.152 3.11 3.11 0 01.432 1.632V197h-1.2v-5.104c0-.523-.096-.965-.288-1.328a1.902 1.902 0 00-.784-.832 2.154 2.154 0 00-1.152-.304c-.437 0-.826.101-1.168.304a1.99 1.99 0 00-.8.848c-.192.363-.288.8-.288 1.312V197h-1.2z" fill="#000"/><circle cx="111.5" cy="190.5" r="14.5" fill="#0D9D57"/><rect x="238" y="107" width="178" height="56" rx="28" fill="#FCE3E9"/><path d="M310.456 130.44c.715 0 1.333.133 1.856.4.533.256.949.624 1.248 1.104.299.48.448 1.051.448 1.712s-.149 1.232-.448 1.712c-.299.48-.715.853-1.248 1.12-.523.256-1.141.384-1.856.384h-2.448V141h-1.28v-10.56h3.728zm-.192 5.232c.832 0 1.44-.171 1.824-.512.384-.352.576-.853.576-1.504 0-.661-.192-1.163-.576-1.504-.384-.341-.992-.512-1.824-.512h-2.256v4.032h2.256zm6.63-4.208c-.288 0-.523-.085-.704-.256-.171-.181-.256-.416-.256-.704s.085-.517.256-.688c.181-.181.416-.272.704-.272s.517.091.688.272c.181.171.272.4.272.688 0 .288-.091.523-.272.704-.171.171-.4.256-.688.256zm.64 1.536v8h-1.28v-8h1.28zm2.97 8v-8h1.12l.08 1.248c.277-.501.656-.859 1.136-1.072.48-.224.997-.336 1.552-.336.576 0 1.098.112 1.568.336.469.213.842.544 1.12.992.288.448.432 1.019.432 1.712V141h-1.28v-4.672c0-.885-.192-1.499-.576-1.84-.374-.352-.838-.528-1.392-.528-.384 0-.768.091-1.152.272-.384.181-.704.475-.96.88-.246.405-.368.949-.368 1.632V141h-1.28zm16.93-8l-3.12 3.12 3.312 4.88h-1.552l-2.688-3.952-1.696 1.696V141h-1.28v-11.68h1.28v7.824l4.128-4.144h1.616z" fill="#000"/><circle cx="275.5" cy="135.5" r="14.5" fill="#EF3B66"/><rect x="103" y="233" width="178" height="56" rx="28" fill="#E0F8F3"/><path d="M170.773 256.614v-1.25h8.727v1.25h-3.659V267h-1.409v-10.386h-3.659zm13.113 10.568c-.841 0-1.566-.186-2.176-.557a3.736 3.736 0 01-1.403-1.568c-.326-.674-.489-1.459-.489-2.352 0-.894.163-1.682.489-2.364.329-.686.788-1.22 1.375-1.602.591-.387 1.28-.58 2.068-.58.455 0 .903.076 1.347.227.443.152.846.398 1.21.739.363.337.653.784.869 1.341.216.557.324 1.242.324 2.057v.568h-6.727v-1.159h5.363c0-.493-.098-.932-.295-1.318a2.219 2.219 0 00-.83-.915c-.356-.224-.776-.335-1.261-.335-.534 0-.996.132-1.386.397a2.617 2.617 0 00-.892 1.023 2.997 2.997 0 00-.313 1.352v.773c0 .659.114 1.218.341 1.676.231.455.551.801.96 1.04.409.235.885.352 1.426.352.353 0 .671-.049.955-.147.288-.103.536-.254.744-.455.209-.205.37-.458.483-.761l1.296.363c-.137.44-.366.826-.688 1.159-.322.33-.72.587-1.193.773a4.425 4.425 0 01-1.597.273zm8.222.023a3.554 3.554 0 01-1.506-.313 2.592 2.592 0 01-1.074-.915c-.265-.401-.397-.886-.397-1.454 0-.5.098-.906.295-1.216.197-.315.46-.561.79-.739.329-.178.693-.31 1.091-.398.401-.09.805-.162 1.21-.215.53-.069.96-.12 1.29-.154.333-.038.576-.1.727-.187.155-.087.233-.239.233-.455v-.045c0-.561-.153-.997-.46-1.307-.303-.311-.763-.466-1.381-.466-.64 0-1.142.14-1.506.42-.363.281-.619.58-.767.898l-1.272-.454c.227-.531.53-.944.909-1.239a3.398 3.398 0 011.25-.625 5.193 5.193 0 011.341-.182c.28 0 .602.034.966.102.367.065.721.199 1.062.404.345.204.631.513.858.926.227.413.341.966.341 1.659V267h-1.341v-1.182h-.068a2.36 2.36 0 01-.455.608c-.212.216-.494.4-.846.551-.353.152-.782.228-1.29.228zm.204-1.205c.531 0 .978-.104 1.341-.312.368-.209.644-.478.83-.807.189-.33.284-.676.284-1.04v-1.227c-.057.068-.182.13-.375.187a6.143 6.143 0 01-.659.142c-.246.038-.487.072-.722.102-.231.027-.418.05-.562.069a5.097 5.097 0 00-.977.221c-.3.099-.542.248-.728.449-.181.197-.272.466-.272.807 0 .466.172.818.517 1.057.348.235.789.352 1.323.352zm7.584-10.636V267h-1.341v-11.636h1.341z" fill="#000"/><circle cx="140.5" cy="261.5" r="14.5" fill="#2D7A6B"/><rect x="277" y="178" width="178" height="56" rx="28" fill="#FFEBE4"/><path d="M346.08 206.4c0-.629.101-1.211.304-1.744a4.181 4.181 0 01.896-1.408 3.994 3.994 0 011.344-.912 4.26 4.26 0 011.696-.336c.608 0 1.168.112 1.68.336.523.213.976.517 1.36.912.384.395.677.864.88 1.408a4.66 4.66 0 01.32 1.744c0 .629-.107 1.216-.32 1.76a4.03 4.03 0 01-.88 1.392 4.156 4.156 0 01-1.36.928 4.331 4.331 0 01-1.68.32 4.452 4.452 0 01-1.696-.32 4.206 4.206 0 01-2.24-2.32 4.995 4.995 0 01-.304-1.76zm-1.44 0c0 .811.139 1.568.416 2.272a5.668 5.668 0 001.2 1.84 5.749 5.749 0 001.808 1.216 5.82 5.82 0 002.256.432c.821 0 1.573-.144 2.256-.432a5.749 5.749 0 001.808-1.216 5.454 5.454 0 001.184-1.84A5.94 5.94 0 00356 206.4c0-.821-.144-1.579-.432-2.272a5.281 5.281 0 00-1.184-1.824 5.401 5.401 0 00-1.808-1.216c-.683-.299-1.435-.448-2.256-.448-.811 0-1.563.149-2.256.448a5.401 5.401 0 00-1.808 1.216 5.483 5.483 0 00-1.2 1.824 6.07 6.07 0 00-.416 2.272zm14.481-1.76h-1.28V212h1.28v-7.36zm2.224 1.408l.704-1.056a1.38 1.38 0 00-.64-.4 2.309 2.309 0 00-.736-.112c-.342 0-.678.133-1.008.4-.331.267-.603.629-.816 1.088-.203.448-.304.965-.304 1.552h.576c0-.352.032-.667.096-.944a1.29 1.29 0 01.384-.656c.181-.16.432-.24.752-.24.213 0 .389.032.528.096a2 2 0 01.464.272zm2.556 3.68c0-.267.064-.496.192-.688.128-.192.32-.341.576-.448.267-.107.608-.16 1.024-.16.448 0 .869.059 1.264.176.395.107.779.288 1.152.544v-.752c-.075-.096-.219-.219-.432-.368-.213-.16-.501-.299-.864-.416-.352-.128-.795-.192-1.328-.192-.597 0-1.115.101-1.552.304a2.284 2.284 0 00-.992.816c-.224.352-.336.768-.336 1.248 0 .501.117.928.352 1.28s.544.624.928.816c.395.181.816.272 1.264.272.405 0 .811-.075 1.216-.224a2.505 2.505 0 001.04-.688c.288-.309.432-.699.432-1.168l-.256-.96a1.853 1.853 0 01-1.04 1.696c-.309.16-.661.24-1.056.24-.309 0-.587-.048-.832-.144a1.33 1.33 0 01-.56-.464 1.322 1.322 0 01-.192-.72zm-.192-3.392c.117-.085.277-.187.48-.304a3.406 3.406 0 011.728-.432c.224 0 .437.021.64.064s.379.112.528.208a.95.95 0 01.368.4c.085.16.128.368.128.624V212h1.28v-5.28c0-.48-.123-.885-.368-1.216-.235-.331-.571-.581-1.008-.752-.427-.181-.928-.272-1.504-.272-.683 0-1.269.101-1.76.304-.48.203-.859.405-1.136.608l.624.944zm12.039 1.184V212h1.28v-4.64c0-.597-.107-1.109-.32-1.536a2.315 2.315 0 00-.864-.992c-.373-.235-.821-.352-1.344-.352-.48 0-.907.107-1.28.32-.363.213-.667.544-.912.992v-1.152h-1.28V212h1.28v-4.48c0-.363.075-.683.224-.96.16-.277.379-.491.656-.64.288-.16.619-.24.992-.24.341 0 .629.069.864.208.235.139.411.347.528.624.117.267.176.603.176 1.008zm3.19 4.96c0 .629.155 1.184.464 1.664.31.491.736.869 1.28 1.136.555.267 1.19.4 1.904.4.619 0 1.206-.144 1.76-.432a3.44 3.44 0 001.36-1.296c.352-.565.528-1.269.528-2.112v-7.2h-1.28v7.2c0 .619-.122 1.12-.368 1.504-.234.395-.533.683-.896.864-.362.181-.73.272-1.104.272-.48 0-.896-.096-1.248-.288a2.028 2.028 0 01-.816-.736 1.77 1.77 0 01-.288-.976h-1.296zm-.144-4.16c0 .789.166 1.472.496 2.048a3.458 3.458 0 001.328 1.328 3.687 3.687 0 001.824.464 2.96 2.96 0 001.248-.256 2.73 2.73 0 00.976-.768c.278-.331.491-.731.64-1.2a5.41 5.41 0 00.224-1.616 5.25 5.25 0 00-.224-1.6 3.458 3.458 0 00-.64-1.216 2.583 2.583 0 00-.976-.752 2.821 2.821 0 00-1.248-.272c-.661 0-1.269.155-1.824.464a3.458 3.458 0 00-1.328 1.328c-.33.565-.496 1.248-.496 2.048zm1.296 0c0-.565.112-1.045.336-1.44a2.34 2.34 0 01.928-.896 2.63 2.63 0 011.248-.304c.278 0 .555.059.832.176.278.117.528.288.752.512.235.224.422.501.56.832.139.32.208.693.208 1.12 0 .427-.069.805-.208 1.136-.138.32-.325.592-.56.816a2.343 2.343 0 01-.752.512 2.123 2.123 0 01-.832.176 2.63 2.63 0 01-1.248-.304 2.34 2.34 0 01-.928-.896c-.224-.395-.336-.875-.336-1.44zm11.317 3.84c.79 0 1.472-.155 2.048-.464.587-.32 1.072-.789 1.456-1.408l-1.04-.656c-.266.448-.592.784-.976 1.008-.384.213-.826.32-1.328.32-.501 0-.928-.107-1.28-.32a2.016 2.016 0 01-.8-.928c-.181-.405-.272-.896-.272-1.472 0-.416.054-.789.16-1.12.107-.331.262-.608.464-.832a1.99 1.99 0 01.736-.512c.299-.117.63-.176.992-.176.416 0 .779.091 1.088.272.31.181.55.432.72.752.182.32.272.699.272 1.136 0 .075-.016.171-.048.288a1.091 1.091 0 01-.096.24l.512-.736h-5.28v1.088h6.288v-.144a1.87 1.87 0 00.016-.24c0-.779-.138-1.451-.416-2.016a2.946 2.946 0 00-1.2-1.296c-.512-.309-1.13-.464-1.856-.464a3.74 3.74 0 00-1.488.288 3.206 3.206 0 00-1.152.784c-.32.331-.57.731-.752 1.2-.17.469-.256.992-.256 1.568 0 .757.144 1.424.432 2 .299.576.71 1.029 1.232 1.36.534.32 1.142.48 1.824.48z" fill="#000"/><circle cx="314.5" cy="206.5" r="14.5" fill="#FF6838"/></svg>