<svg width="148" height="67" viewBox="0 0 148 67" fill="none" xmlns="http://www.w3.org/2000/svg"><g clip-path="url(#clip0)"><path d="M13.96 16.345c9.105-4.208 22.198-4.776 32.43-7.904C56.71 5.314 63.992-.429 70.93.025c6.936.512 13.44 7.165 25.926 9.44 12.486 2.331 30.956.284 41.187 3.98 10.319 3.696 12.487 13.135 7.111 20.527-5.377 7.45-18.21 12.852-28.702 16.32-10.492 3.525-18.556 5.117-25.666 7.051-7.11 1.933-13.267 4.15-21.244 6.255-7.978 2.047-17.863 3.98-28.094 3.241-10.232-.682-20.898-4.094-28.702-9.723C4.942 51.543 0 43.81 0 36.02c0-7.734 4.943-15.524 13.96-19.675z" fill="#000"/></g><defs><clipPath id="clip0"><path fill="#fff" d="M0 0h148v67H0z"/></clipPath></defs></svg>