<svg width="183" height="183" viewBox="0 0 183 183" fill="none" xmlns="http://www.w3.org/2000/svg"><mask id="mask0" maskUnits="userSpaceOnUse" x="0" y="0" width="183" height="183"><path d="M183 91.304c0 50.367-40.966 91.196-91.5 91.196S0 141.671 0 91.304C0 40.938 40.966.108 91.5.108S183 40.938 183 91.304z" fill="#000"/></mask><g mask="url(#mask0)" fill-rule="evenodd" clip-rule="evenodd" fill="#000"><path d="M137.25 8.578h-91.5V2.86h91.5v5.72zm24.4 22.875H21.35v-5.719h140.3v5.72zm-10.37-11.437H31.72v-5.72h119.56v5.72zm17.995 22.874H13.725v-5.718h155.55v5.719zm9.607 22.876H4.117v-5.72h174.765v5.72zm-4.422-11.438H8.54V48.61h165.92v5.72zm6.863 22.875H1.677v-5.719h179.646v5.72zm1.067 22.875H.61v-5.719h181.78v5.719zM183 88.64H0v-5.718h183v5.719zm-1.83 22.876H1.83v-5.719h179.34v5.719zm-6.71 22.875H8.54v-5.719h165.92v5.719zm3.66-11.438H4.88v-5.719h173.24v5.719zm-9.15 22.875H14.03v-5.719h154.94v5.719zm-17.69 22.875H31.72v-5.719h119.56v5.719zm10.065-11.437H21.655v-5.719h139.69v5.719zm-26.535 22.875H48.19v-5.719h86.62v5.719z"/></g></svg>