<svg width="667" height="169" viewBox="0 0 667 169" fill="none" xmlns="http://www.w3.org/2000/svg"><path d="M0 161.066L62.826 5h24.642l62.604 156.066h-32.19L69.486 32.972h11.1L31.524 161.066H0zm33.3-29.082v-25.308h83.916v25.308H33.3zm170.683 31.524a67.522 67.522 0 01-17.982-2.442c-5.772-1.628-11.1-3.848-15.984-6.66-4.884-2.96-9.102-6.512-12.654-10.656l17.316-17.538c3.7 4.144 7.992 7.252 12.876 9.324 4.884 2.072 10.286 3.108 16.206 3.108 4.736 0 8.288-.666 10.656-1.998 2.516-1.332 3.774-3.33 3.774-5.994 0-2.96-1.332-5.254-3.996-6.882-2.516-1.628-5.846-2.96-9.99-3.996-4.144-1.184-8.51-2.442-13.098-3.774a82.4 82.4 0 01-12.876-5.55c-4.144-2.368-7.548-5.55-10.212-9.546-2.516-4.144-3.774-9.472-3.774-15.984 0-6.808 1.628-12.728 4.884-17.76 3.404-5.032 8.214-8.954 14.43-11.766 6.216-2.812 13.542-4.218 21.978-4.218 8.88 0 16.872 1.554 23.976 4.662 7.252 3.108 13.246 7.77 17.982 13.986l-17.538 17.538c-3.256-3.996-6.956-6.882-11.1-8.658-3.996-1.776-8.362-2.664-13.098-2.664-4.292 0-7.622.666-9.99 1.998-2.22 1.332-3.33 3.182-3.33 5.55 0 2.664 1.258 4.736 3.774 6.216 2.664 1.48 6.068 2.812 10.212 3.996a175.026 175.026 0 0112.876 3.774 50.43 50.43 0 0112.876 5.772 29.33 29.33 0 019.99 9.99c2.664 4.144 3.996 9.472 3.996 15.984 0 10.508-3.774 18.87-11.322 25.086-7.548 6.068-17.834 9.102-30.858 9.102zm98.643 0a67.522 67.522 0 01-17.982-2.442c-5.772-1.628-11.1-3.848-15.984-6.66-4.884-2.96-9.102-6.512-12.654-10.656l17.316-17.538c3.7 4.144 7.992 7.252 12.876 9.324 4.884 2.072 10.286 3.108 16.206 3.108 4.736 0 8.288-.666 10.656-1.998 2.516-1.332 3.774-3.33 3.774-5.994 0-2.96-1.332-5.254-3.996-6.882-2.516-1.628-5.846-2.96-9.99-3.996-4.144-1.184-8.51-2.442-13.098-3.774a82.4 82.4 0 01-12.876-5.55c-4.144-2.368-7.548-5.55-10.212-9.546-2.516-4.144-3.774-9.472-3.774-15.984 0-6.808 1.628-12.728 4.884-17.76 3.404-5.032 8.214-8.954 14.43-11.766 6.216-2.812 13.542-4.218 21.978-4.218 8.88 0 16.872 1.554 23.976 4.662 7.252 3.108 13.246 7.77 17.982 13.986L328.6 87.362c-3.256-3.996-6.956-6.882-11.1-8.658-3.996-1.776-8.362-2.664-13.098-2.664-4.292 0-7.622.666-9.99 1.998-2.22 1.332-3.33 3.182-3.33 5.55 0 2.664 1.258 4.736 3.774 6.216 2.664 1.48 6.068 2.812 10.212 3.996a175.026 175.026 0 0112.876 3.774 50.43 50.43 0 0112.876 5.772 29.33 29.33 0 019.99 9.99c2.664 4.144 3.996 9.472 3.996 15.984 0 10.508-3.774 18.87-11.322 25.086-7.548 6.068-17.834 9.102-30.858 9.102zm106.634-.222c-9.768 0-18.574-2.442-26.418-7.326-7.844-4.884-13.986-11.544-18.426-19.98-4.44-8.436-6.66-17.908-6.66-28.416 0-10.656 2.22-20.202 6.66-28.638 4.44-8.436 10.582-15.096 18.426-19.98 7.844-4.884 16.65-7.326 26.418-7.326 7.696 0 14.578 1.554 20.646 4.662 6.068 3.108 10.878 7.474 14.43 13.098 3.7 5.476 5.698 11.692 5.994 18.648v38.628c-.296 7.104-2.294 13.394-5.994 18.87-3.552 5.476-8.362 9.842-14.43 13.098-6.068 3.108-12.95 4.662-20.646 4.662zm5.328-26.862c8.14 0 14.726-2.664 19.758-7.992 5.032-5.476 7.548-12.506 7.548-21.09 0-5.624-1.184-10.582-3.552-14.874-2.22-4.44-5.402-7.844-9.546-10.212-3.996-2.516-8.732-3.774-14.208-3.774-5.328 0-10.064 1.258-14.208 3.774-3.996 2.368-7.178 5.772-9.546 10.212-2.22 4.292-3.33 9.25-3.33 14.874 0 5.772 1.11 10.878 3.33 15.318 2.368 4.292 5.55 7.696 9.546 10.212 4.144 2.368 8.88 3.552 14.208 3.552zm25.752 24.642v-28.86l4.662-26.196-4.662-25.752V53.84h28.86v107.226h-28.86zm126.738 0V99.572c0-6.364-1.998-11.544-5.994-15.54-3.996-3.996-9.176-5.994-15.54-5.994-4.144 0-7.844.888-11.1 2.664-3.256 1.776-5.846 4.292-7.77 7.548-1.776 3.256-2.664 7.03-2.664 11.322L512.688 93.8c0-8.436 1.776-15.762 5.328-21.978 3.7-6.364 8.732-11.322 15.096-14.874 6.512-3.552 13.838-5.328 21.978-5.328 7.844 0 14.874 1.998 21.09 5.994 6.216 3.848 11.1 8.954 14.652 15.318 3.552 6.216 5.328 12.95 5.328 20.202v67.932h-29.082zm-72.15 0V53.84h29.082v107.226h-29.082zm144.638 2.22c-5.328 0-9.694-1.776-13.098-5.328-3.404-3.552-5.106-7.918-5.106-13.098 0-5.18 1.702-9.546 5.106-13.098 3.404-3.552 7.77-5.328 13.098-5.328 5.18 0 9.472 1.776 12.876 5.328 3.404 3.552 5.106 7.918 5.106 13.098 0 5.18-1.702 9.546-5.106 13.098-3.404 3.552-7.696 5.328-12.876 5.328z" fill="#fff"/></svg>