<svg width="960" height="710" viewBox="0 0 960 710" fill="none" xmlns="http://www.w3.org/2000/svg"><path opacity=".6" d="M690.985 687.5c121.237 28.498 232.263-28.5 264.683-110C988.089 496 830.97 332 735.645 242S656.732 7.353 446.736.178C303.719-4.708 149.45 91.668 80.01 221.075 10.57 350.481-32.258 509.737 30.5 624.456c62.757 114.719 205.772 93.836 358.505 53.423 115.685-30.611 200.04-14.34 301.98 9.621z" fill="#5346F6" fill-opacity=".05"/><path d="M804 629H93m743 .344h-11.379" stroke="#220D4E" stroke-width="2" stroke-linecap="round" stroke-linejoin="round"/><path d="M208.631 257.232c2.984-.291 4.512 4.323 6.766 9.089 1.258 2.634 4.363 12.728 4.872 12.34-1.192-4.297-5.174-28.982-3.255-37.126.583-2.493 4.894-4.111 6.541-3.582 3.296 1.058 8.116 32.231 9.063 38.347.498 3.323-1.409-20.953-1.387-27.09.014-5.041.28-10.74 1.77-14.229 1.043-2.463 4.767-2.179 6.431-1.902 3.951.679 4.914 12.027 5.297 17.747.248 3.939 1.999 16.097 2.304 23.669 1.318-.231 1.511.035 2.735-.033-.78-6.084-.868-25.369-.666-31.684.144-4.462 1.881-8.526 7.403-7.112 3.825.987 7.786 22.443 8.577 29.667.278 2.507.75 11.376.632 14.806.455.431.89.86 1.321 1.331.9-1.861 4.284-11.513 11.759-16.511 1.362-.903 6.856 1.584 6.662 4.23-.396 5.1-4.495 15.401-6.438 19.725a1884.734 1884.734 0 01-5.22 11.368 31.7 31.7 0 01-.068 1.999c-1.014 15.543-10.05 22.887-24.966 24.955-17.611 2.44-26.776-8.217-30.649-23.298-1.006-3.925-4.755-14.779-5.351-16.273-1.988-4.981-6.791-18.371-7.918-26.882-.376-2.619 2.515-3.422 3.785-3.551z" fill="#8A5353" stroke="#220D4E" stroke-width="2" stroke-miterlimit="10" stroke-linecap="round" stroke-linejoin="round"/><path d="M266.735 281.892s-10.737-3.018-22.419 8.457m16.481-14.118c-.614-.251-22.352-5.463-37.511 4.526" stroke="#220D4E" stroke-width="2" stroke-miterlimit="10" stroke-linecap="round" stroke-linejoin="round"/><path d="M264.508 304.571l45.526 105.005s39.288 3.435 46.33 5.502l4.969 65.766-86.983-39.293s-46.611-113.273-48.295-126.843c-2.055-16.523 38.453-10.137 38.453-10.137z" fill="#8A5353"/><path d="M274.106 442.165l-47.973-122.566m84.433 90.433l-40.785-93.93m49.893 146.418l-45.567-20.355" stroke="#220D4E" stroke-width="2" stroke-linecap="round" stroke-linejoin="round"/><path d="M246.856 324.596s7.248 3.48 16.98-3.346" stroke="#220D4E" stroke-width="2" stroke-miterlimit="10" stroke-linecap="round" stroke-linejoin="round"/><path d="M310.861 410.311l-11.447 9.642m39.968-8.597l-28.816-1.942" stroke="#220D4E" stroke-width="2" stroke-linecap="round" stroke-linejoin="round"/><path fill-rule="evenodd" clip-rule="evenodd" d="M731.577 451.462c3.3-2.72 6.069-5.002 8.235-3.68 1.084.667 3.33 2.641 1.846 4.814-4.737 7.101-14.911 16.956-18.877 20.534-1.19 1.074-9.308 9.124-11.929 12.188-4.892 5.713-10.449 9.952-16.56 11.678-.136.274-.277.55-.424.829-11.326 14.029-99.209 98.492-106.721 97.902-7.511-.589-42.761-60.905-42.761-60.905l5.546-84.479c14.205-17.833 48.945 83.653 48.945 83.653l60.381-60.671c-.444-4.14.295-8.677 2.356-13.681.255-.619.521-1.21.815-1.813.108-5.215.212-9.98.285-12.411.146-4.703.972-15.676 2.848-20.397.983-2.444 7.007-2.273 7.836-.875 3.975 6.768 3.549 15.363 3.381 18.751a27.19 27.19 0 00-.043 1.093 26.116 26.116 0 011.77-.612c1.394-3.111 5.7-10.817 7.047-12.933 3.871-6.099 16.82-23.515 20.688-22.731 5.579 1.141 5.361 5.521 3.538 9.564-2.582 5.721-11.1 22.886-14.464 27.973.446.247.756.365 1.044.474.405.154.767.291 1.399.746 2.237-4.129 5.759-9.603 8.566-13.966 1.695-2.634 3.129-4.863 3.862-6.145 2.847-4.936 8.678-14.64 12.524-13.526 1.616.477 5.086 1.843 4.946 4.495-.189 3.76-2.443 8.96-4.637 13.462-1.46 3.003-5.821 10.609-9.155 16.423-2.753 4.802-4.805 8.381-3.945 7.138l.017-.024c3.566-5.101 21.487-30.728 24.905-30.239 1.711.245 4.876 3.564 4.309 6.041-1.84 8.1-16.22 28.387-19.171 31.701.168.332 2.697-2.141 5.226-4.615 1.801-1.762 3.602-3.523 4.551-4.273.624-.496 1.231-.997 1.821-1.483z" fill="#8A5353"/><path d="M739.812 447.782l.528-.85-.003-.001-.525.851zm-8.235 3.68l.638.768-.638-.768zm10.081 1.134l-.828-.56-.006.009.834.551zm-18.877 20.534l.672.739-.672-.739zm-11.929 12.188l.762.647.001-.001-.763-.646zm-16.56 11.678l-.271-.96a1.004 1.004 0 00-.627.52l.898.44zm-.424.829l.78.624c.041-.051.077-.105.107-.162l-.887-.462zm-106.721 97.902l-.081.995.081-.995zm-42.761-60.905l-1-.062a.992.992 0 00.133.566l.867-.504zm5.546-84.479l-.784-.618a1 1 0 00-.216.556l1 .062zm48.945 83.653l-.949.324a.997.997 0 00.723.649c.338.077.692-.026.937-.272l-.711-.701zm60.381-60.671l.711.701a1 1 0 00.285-.81l-.996.109zm2.356-13.681l-.927-.376.927.376zm.815-1.813l.901.433a.995.995 0 00.101-.415l-1.002-.018zm.285-12.411l-1.002-.029v.002l1.002.027zm2.848-20.397l-.93-.369-.002.004.932.365zm7.836-.875l.866-.505-.002-.004-.864.509zm3.381 18.751l1.001.046-1.001-.046zm-.043 1.093h-1.002a.992.992 0 00.435.824c.274.186.622.225.931.105l-.364-.929zm1.77-.612l.296.953c.276-.086.501-.286.619-.548l-.915-.405zm7.047-12.933l.846.533.001-.001-.847-.532zm20.688-22.731l.204-.978h-.001l-.203.978zm3.538 9.564l.914.407-.914-.407zm-14.464 27.973l-.836-.547a.997.997 0 00-.138.786.996.996 0 00.485.633l.489-.872zm1.044.474l.359-.932-.359.932zm1.399.746l-.588.809a1.003 1.003 0 001.47-.337l-.882-.472zm8.566-13.966l-.844-.536.844.536zm3.862-6.145l-.869-.496-.002.004.871.492zm12.524-13.526l.288-.957-.005-.001-.283.958zm4.946 4.495l-1.001-.05v.002l1.001.048zm-4.637 13.462l-.902-.434v.001l.902.433zm-9.155 16.423l.87.493-.87-.493zm-3.945 7.138l-.823-.568-.002.004.825.564zm.017-.024l-.822-.568h-.001l.823.568zm24.905-30.239l-.145.987.145-.987zm4.309 6.041l-.977-.219-.001.002.978.217zm-19.171 31.701l-.749-.661a.993.993 0 00-.146 1.111l.895-.45zm5.226-4.615l-.702-.711.702.711zm4.551-4.273l.622.781.003-.002-.625-.779zm10.581-6.014c-1.549-.946-3.216-.502-4.695.299-1.48.802-3.08 2.126-4.703 3.464l1.276 1.536c1.677-1.382 3.111-2.559 4.382-3.248 1.272-.689 2.073-.726 2.689-.349l1.051-1.702zm2.149 6.224c.485-.71.691-1.449.664-2.174-.027-.711-.275-1.345-.592-1.872-.623-1.033-1.598-1.795-2.218-2.177l-1.057 1.699c.465.286 1.155.844 1.555 1.508.194.322.298.631.309.922.01.276-.06.599-.317.975l1.656 1.119zm-19.033 20.714c3.967-3.58 14.227-13.507 19.04-20.723l-1.669-1.101c-4.661 6.988-14.751 16.77-18.715 20.347l1.344 1.477zm-11.838 12.095c2.586-3.023 10.672-11.043 11.838-12.095l-1.344-1.477c-1.213 1.094-9.363 9.176-12.019 12.281l1.525 1.291zm-17.052 11.992c6.37-1.799 12.085-6.193 17.051-11.991l-1.524-1.293c-4.818 5.626-10.217 9.712-16.069 11.364l.542 1.92zm.192.331c.151-.286.296-.57.436-.851l-1.797-.88c-.132.266-.27.535-.413.808l1.774.923zm-107.689 98.435c.453.036.931-.089 1.363-.248.453-.168.963-.416 1.518-.724 1.11-.618 2.481-1.529 4.067-2.679 3.175-2.303 7.291-5.628 12.034-9.661 9.49-8.07 21.547-19.024 33.715-30.426 24.309-22.78 49.169-47.455 54.885-54.535l-1.561-1.248c-5.609 6.949-30.353 31.52-54.696 54.332-12.158 11.393-24.188 22.321-33.642 30.361-4.73 4.021-8.8 7.308-11.913 9.565-1.559 1.131-2.856 1.988-3.864 2.55a9.241 9.241 0 01-1.236.594c-.16.059-.284.094-.376.113-.096.019-.135.016-.131.017l-.163 1.989zm-42.68-61.9c-.867.504-.866.504-.866.505l.001.002.005.008.019.033.077.13.297.506a984.094 984.094 0 005.233 8.766c3.425 5.668 8.071 13.235 12.954 20.822 4.879 7.582 10.006 15.203 14.391 20.972 2.19 2.881 4.213 5.325 5.94 7.075.863.874 1.673 1.598 2.41 2.119.711.502 1.472.903 2.219.962l.163-1.989c-.192-.015-.587-.155-1.218-.601-.604-.427-1.321-1.059-2.142-1.891-1.638-1.661-3.601-4.026-5.772-6.882-4.337-5.706-9.431-13.275-14.303-20.845-4.869-7.566-9.504-15.115-12.924-20.774a945.432 945.432 0 01-5.221-8.746l-.296-.503-.075-.129-.019-.033a.092.092 0 01-.005-.008l-.001-.002-.867.503zm4.546-84.541l-5.546 84.479 2 .125 5.547-84.479-2.001-.125zm49.945 83.715l.948-.325-.001-.004-.005-.014a1.121 1.121 0 01-.019-.056l-.076-.218-.294-.848c-.259-.741-.64-1.824-1.129-3.197a695.763 695.763 0 00-4.136-11.269c-3.482-9.246-8.277-21.396-13.519-32.994-5.234-11.579-10.945-22.679-16.27-29.779-2.645-3.527-5.291-6.201-7.838-7.379-1.298-.601-2.629-.84-3.937-.542-1.31.3-2.461 1.108-3.453 2.354l1.569 1.237c.784-.984 1.568-1.472 2.328-1.646.762-.174 1.633-.061 2.645.407 2.071.958 4.47 3.287 7.079 6.766 5.184 6.913 10.821 17.841 16.048 29.405 5.218 11.544 9.996 23.651 13.471 32.876a690.402 690.402 0 014.124 11.237c.488 1.367.867 2.447 1.124 3.184l.293.841.074.216.019.055.004.013.001.003c.001.001.001.001.95-.323zm59.67-61.372l-60.381 60.671 1.422 1.402 60.381-60.671-1.422-1.402zm2.14-13.356c-2.11 5.122-2.891 9.827-2.426 14.165l1.993-.217c-.422-3.941.275-8.31 2.287-13.196l-1.854-.752zm.84-1.87a32.623 32.623 0 00-.84 1.87l1.854.752c.247-.599.504-1.171.789-1.756l-1.803-.866zm.185-12.005a1788.07 1788.07 0 00-.286 12.42l2.005.036c.108-5.217.212-9.977.284-12.402l-2.003-.054zm2.918-20.735c-.992 2.496-1.678 6.539-2.136 10.457-.463 3.952-.708 7.899-.782 10.276l2.003.057c.073-2.326.314-6.216.77-10.107.459-3.924 1.124-7.728 2.009-9.953l-1.864-.73zm9.632-1.019c-.23-.388-.586-.651-.916-.831a4.89 4.89 0 00-1.137-.424c-.807-.203-1.77-.284-2.719-.236-.947.048-1.943.228-2.798.594-.845.361-1.677.958-2.06 1.912l1.86.738c.108-.269.398-.566.986-.817.576-.246 1.323-.394 2.108-.434.783-.039 1.544.031 2.13.178a2.9 2.9 0 01.666.241c.161.088.176.135.153.097l1.727-1.018zm3.518 19.306c.166-3.357.628-12.245-3.516-19.302l-1.731 1.01c3.804 6.479 3.414 14.781 3.245 18.199l2.002.093zm-.042 1.047c.001-.221.018-.564.042-1.047l-2.002-.093c-.023.46-.043.86-.044 1.14h2.004zm.472-1.564c-.612.19-1.214.391-1.838.635l.728 1.858a24.386 24.386 0 011.702-.588l-.592-1.905zm6.497-12.513c-1.366 2.146-5.697 9.895-7.116 13.061l1.83.809c1.37-3.058 5.651-10.72 6.978-12.805l-1.692-1.065zm21.737-23.177c-.857-.174-1.759.173-2.536.611-.821.464-1.72 1.156-2.654 1.987-1.872 1.666-4.011 4.003-6.125 6.526-4.231 5.051-8.463 10.965-10.423 14.054l1.694 1.063c1.911-3.011 6.089-8.854 10.267-13.841 2.091-2.495 4.156-4.746 5.921-6.316.884-.787 1.662-1.374 2.305-1.737.686-.388 1.036-.414 1.146-.392l.405-1.955zm4.249 10.949c.942-2.088 1.56-4.444 1.068-6.51a5.238 5.238 0 00-1.7-2.809c-.896-.773-2.099-1.32-3.616-1.63l-.408 1.955c1.273.26 2.135.689 2.71 1.185a3.256 3.256 0 011.064 1.764c.338 1.421-.064 3.277-.946 5.232l1.828.813zM696.152 445.8c3.412-5.161 11.959-22.392 14.541-28.113l-1.828-.813c-2.582 5.721-11.072 22.819-14.386 27.832l1.673 1.094zm.566-1.005c-.276-.105-.532-.202-.913-.414l-.979 1.744c.509.283.873.421 1.174.535l.718-1.865zm1.629.869a6.122 6.122 0 00-1.629-.869L696 446.66c.363.137.636.238 1.17.622l1.177-1.618zm7.133-13.693c-2.799 4.351-6.345 9.861-8.604 14.03l1.764.944c2.215-4.088 5.714-9.527 8.528-13.901l-1.688-1.073zm3.835-6.101c-.716 1.253-2.131 3.453-3.835 6.101l1.688 1.073c1.686-2.621 3.139-4.879 3.888-6.191l-1.741-.983zm13.678-13.992c-1.424-.412-2.849.22-4.055 1.105-1.239.908-2.483 2.253-3.651 3.732-2.345 2.967-4.547 6.684-5.97 9.151l1.737.991c1.424-2.468 3.562-6.071 5.807-8.911 1.125-1.425 2.238-2.606 3.263-3.358 1.058-.776 1.804-.939 2.304-.794l.565-1.916zm5.664 5.502c.097-1.832-1.072-3.118-2.239-3.93-1.18-.822-2.57-1.32-3.42-1.571l-.575 1.913c.766.226 1.919.65 2.843 1.294.937.652 1.433 1.376 1.389 2.195l2.002.099zm-4.737 13.846c1.103-2.262 2.231-4.722 3.11-7.1.873-2.365 1.525-4.717 1.627-6.748l-2.002-.095c-.087 1.73-.657 3.858-1.506 6.158-.845 2.287-1.94 4.678-3.032 6.918l1.803.867zm-9.186 16.483c3.321-5.793 7.707-13.44 9.187-16.484l-1.804-.865c-1.441 2.964-5.777 10.528-9.123 16.363l1.74.986zm-5.64 6.081c-.05.072-.081.115-.097.135l.009-.01a.92.92 0 01.232-.183 1.007 1.007 0 01.936-.021c.542.271.547.818.548.862.003.128-.021.224-.026.247a.943.943 0 01-.023.076c-.011.031-.014.032.014-.025.099-.205.346-.659.725-1.335a750.496 750.496 0 013.322-5.827l-1.74-.986c-1.375 2.399-2.58 4.5-3.333 5.845a36.166 36.166 0 00-.778 1.438c-.029.061-.071.149-.101.235a1.042 1.042 0 00-.064.381c.001.049.008.6.552.872a1.013 1.013 0 00.948-.024c.168-.094.276-.222.279-.225a1.79 1.79 0 00.088-.107c.047-.061.101-.136.158-.219l-1.649-1.129zm.019-.028l-.017.024 1.645 1.137.017-.024-1.645-1.137zm25.873-30.659c-.522-.075-1.021.109-1.402.302-.407.206-.838.506-1.278.861-.882.71-1.915 1.734-3.036 2.954-2.247 2.447-4.94 5.792-7.622 9.29-5.368 7.003-10.751 14.702-12.534 17.252l1.644 1.137c1.783-2.551 7.144-10.217 12.482-17.181 2.672-3.485 5.322-6.774 7.508-9.154 1.096-1.193 2.051-2.131 2.817-2.749.384-.309.692-.515.925-.632.259-.132.301-.091.206-.105l.29-1.975zm5.141 7.249c.387-1.693-.501-3.459-1.492-4.7a9.188 9.188 0 00-1.727-1.669c-.585-.425-1.26-.785-1.922-.88l-.29 1.975c.193.028.555.175 1.027.518.451.328.926.78 1.342 1.3.877 1.099 1.287 2.232 1.108 3.017l1.954.439zm-19.399 32.142c1.53-1.718 5.897-7.673 10.096-14.179 2.105-3.263 4.183-6.686 5.854-9.812 1.658-3.102 2.958-5.989 3.449-8.153l-1.955-.435c-.428 1.885-1.616 4.572-3.263 7.655-1.636 3.06-3.683 6.434-5.771 9.67-4.189 6.491-8.487 12.337-9.908 13.932l1.498 1.322zm3.775-5.987c-1.269 1.241-2.519 2.464-3.473 3.336-.482.44-.861.767-1.119.959-.139.104-.189.127-.175.121a.826.826 0 01.287-.057.936.936 0 01.852.517l-1.791.9a1.047 1.047 0 00.968.578c.235-.004.423-.082.508-.121.195-.088.389-.222.55-.342.343-.256.785-.64 1.273-1.086.985-.901 2.263-2.151 3.523-3.384l-1.403-1.421zm4.632-4.343c-1.003.792-2.856 2.606-4.632 4.343l1.403 1.421c1.826-1.785 3.576-3.495 4.472-4.202l-1.243-1.562zm1.804-1.47c-.591.487-1.191.982-1.807 1.472l1.249 1.558c.631-.503 1.245-1.009 1.834-1.494l-1.276-1.536z" fill="#220D4E"/><path d="M524.974 577.755l76.688-56.138-46.877-93.431-48.017 12.082 18.206 137.487zm-127.71-165.467l-75.199-13.837-17.813 79.413 102.312 27.298-9.3-92.874z" fill="#FFC107"/><path d="M554.568 428.715s-42.133-28.507-93.742-27.78c-51.61.728-84.456 14.958-84.456 14.958v131.591c0 31.775 8.054 62.938 8.054 62.938s1.832 13.585 2.308 17.384h154.077c6.114 0 6.892-28.97 6.892-87.831 0-55.13 6.867-111.26 6.867-111.26z" fill="#FFC107"/><path d="M375.62 465.109l.246 88.722m172.498-73.415l.001 81.066M389.518 411.701l-13.452 17.24m19.554-14.832l-5.105 20.042M512.991 409.5c-.694 13.314-10.415 39.941-43.746 39.941s-45.83-26.627-47.913-39.941" stroke="#220D4E" stroke-width="2" stroke-linecap="round" stroke-linejoin="round"/><path d="M539.145 263.747c-11.479-14.079-25.219-16.861-41.034-16.007 7.875-25.06-21.463-36.54-34.474-25.47-4.554-11.331-29.183-13.235-33.845-1.852-14.485-11.031-22.365 3.15-20.347 10.961-10.831-5.091-23.923 1.303-19.102 15.901-3.527.441-12.776-.439-17.233 8.973-4.457 9.412 1.368 16.187 4.389 21.908-2.658 1.442-10.697 1.756-12.991 10.362-2.753 10.326.677 14.516 4.836 20.233-3.337-.275-13.574 1.657-13.628 12.752-.058 12.024 8.42 14.635 13.424 15.355-5.806 1.678-10.934 8.861-8.68 18.679 2.255 9.818 16.812 8.071 22.615 7.621-2.622 2.526-4.211 6.787-.694 12.046 3.518 5.26 11.807 4.741 16.252.856 2.684 3.942 2.48 12.836 14.198 13.547 3.694.224 8.721 1.178 13.245-4.222.789 3.744 1.8 11.219 10.895 13.237 21.395 4.747 27.057-13.886 32.641-18.388.937 5.012 2.344 13.935 6.786 18.398 4.995 5.019 13.762 1.365 16.499-1.593 1.698 3.986 2.139 10.249 8.613 15.2 4.449 3.402 13.924-2.894 16.622-5.708 4.319 2.073 5.51 10.244 17.844 7.982 7.17-1.315 9.694-11.395 8.57-17.532 3.945-.791 13.09-3.423 16.863-12.095 2.565-5.896 3.786-14.812 1.182-20.883 3.607-1.957 7.389-7.984 6.858-14.762-.531-6.778-6.267-13.038-10.777-14.394 1.147-4.302 5.714-11.842 4.371-21.877-1.792-13.381-11.611-14.308-16.8-17.381 3.556-13.338-.858-24.193-7.098-31.847z" fill="#220D4E"/><path d="M438.388 379.13l4.19 35.06s8.07 13.744 27.785 11.2c19.715-2.545 23.673-18.577 23.673-18.577l-8.302-92.736-47.346 65.053z" fill="#8A5353"/><path d="M478.88 353.801c-9.389 15.266-5.403 20.677-13.643 28.096-1.94 1.747-17.291 7.172-28.489 1.119s-3.537-15.748-3.537-15.748c2.647 1.748 7.016 7.73 13.356 6.535 5.072-.956 21.153-10.151 32.313-20.002z" fill="#220D4E"/><path d="M511.853 320.072s3.226-37.13-21.809-44.198c-37.977 16.036-58.175-3.72-58.175-3.72s-12.686 9.123-18.119 29.479c-4.337 16.252-8.889 40.639 11.587 66.058 20.475 25.419 70.698 11.654 84.158-19.576 24.474-3.32 26.259-38.405 2.358-28.043z" fill="#8A5353" stroke="#220D4E" stroke-width="2" stroke-miterlimit="10" stroke-linecap="round" stroke-linejoin="round"/><path d="M428.994 314.681c1.696.43 3.688-1.634 4.448-4.611.759-2.976 0-5.738-1.697-6.169-1.696-.43-3.688 1.634-4.447 4.611-.76 2.976-.001 5.738 1.696 6.169zm48.05 10.824c1.697.431 3.688-1.633 4.448-4.61.76-2.977 0-5.739-1.696-6.169-1.697-.431-3.688 1.634-4.448 4.61-.76 2.977-.001 5.739 1.696 6.169z" fill="#220D4E"/><path d="M450.804 341.193s-10.3.181-12.251-7.87c-1.952-8.052 5.677-9.752 8.038-14.756" fill="#8A5353"/><path d="M450.804 341.193s-10.3.181-12.251-7.87c-1.952-8.052 5.677-9.752 8.038-14.756 2.361-5.004 1.973-14.834 1.973-14.834m-9.397 45.88s3.797 8.252 12.976 8.63c9.18.378 12.467-6.433 12.467-6.433m-37.837-56.937s7.051-3.029 13.869 3.57m32.583 6.748s7.051-3.029 13.869 3.571" stroke="#220D4E" stroke-width="2" stroke-miterlimit="10" stroke-linecap="round" stroke-linejoin="round"/><path d="M464.78 392.133l1.426-20.359 16.472-11.671.321 18.817-18.219 13.213z" fill="#8A5353"/><path d="M177.639 529.539c-1.035-3.231 1.376-6.534 4.768-6.534h188.957a5.006 5.006 0 014.768 3.479l39.009 121.784c1.035 3.231-1.376 6.534-4.768 6.534H221.416a5.007 5.007 0 01-4.768-3.48l-39.009-121.783z" fill="#00C2FF"/><path d="M483.712 646.333h-269.63a4.234 4.234 0 000 8.469h269.63a4.235 4.235 0 000-8.469z" fill="#F4FCFF"/><path d="M433.248 646.333H214.083a4.234 4.234 0 100 8.468h269.629a4.234 4.234 0 100-8.468h-25.928" stroke="#220D4E" stroke-width="2" stroke-linecap="round" stroke-linejoin="round"/><path d="M168.995 525.619a2.002 2.002 0 011.907-2.613h195.266c.87 0 1.641.562 1.907 1.392l40.933 127.791a2.002 2.002 0 01-1.907 2.613H211.836a2.003 2.003 0 01-1.908-1.391l-40.933-127.792z" fill="#F4FCFF"/><path d="M387.811 586.011l-19.068-59.526a5.005 5.005 0 00-4.767-3.479H253.654m146.428 101.316l7.67 23.947c1.035 3.23-1.375 6.533-4.767 6.533H214.028a5.006 5.006 0 01-4.768-3.479l-39.009-121.784c-1.035-3.23 1.375-6.533 4.768-6.533h52.329l172.734 101.316z" stroke="#220D4E" stroke-width="2" stroke-linecap="round" stroke-linejoin="round"/><path d="M289.32 605.548c7.683 0 13.912-6.134 13.912-13.701s-6.229-13.701-13.912-13.701c-7.683 0-13.912 6.134-13.912 13.701s6.229 13.701 13.912 13.701z" fill="#22AC83"/><path d="M617.414 392.222c-2.433 10.955 4.486 21.804 15.467 24.237 3.288.728 6.554.625 9.604-.188l-8.264 37.214L739.29 476.76c14.322 3.173 28.639-5.935 31.816-20.239l18.581-83.674-47.911-10.614a20.18 20.18 0 01.185 9.605c-2.433 10.955-13.282 17.869-24.264 15.436-10.968-2.43-17.887-13.279-15.454-24.234a20.148 20.148 0 014.234-8.627l-47.898-10.611-8.267 37.226a20.223 20.223 0 00-8.624-4.225c-10.979-2.446-21.838 4.451-24.274 15.419z" fill="#00C2FF"/><path d="M633.965 453.614l8.264-37.213a20.188 20.188 0 01-9.604.188c-10.982-2.433-17.9-13.282-15.467-24.237 2.435-10.968 13.295-17.866 24.273-15.42a20.225 20.225 0 018.624 4.226l8.267-37.226 47.898 10.611a20.137 20.137 0 00-4.233 8.626c-2.433 10.956 4.485 21.805 15.454 24.235 10.981 2.432 21.831-4.481 24.263-15.436.73-3.284.629-6.559-.185-9.605l47.912 10.613" stroke="#220D4E" stroke-width="2"/><path d="M179.808 82.495l.412 85.726 49.055-.263a20.212 20.212 0 01-2.312-9.32c-.048-11.236 9.014-20.367 20.257-20.434 11.23-.064 20.389 8.978 20.438 20.215a19.916 19.916 0 01-2.242 9.337l49.067-.267-.178-38.128c2.803 1.442 5.99 2.227 9.353 2.218 11.247-.055 20.302-9.211 20.244-20.431-.048-11.237-9.195-20.282-20.441-20.228-3.36.022-6.53.844-9.325 2.327l-.183-38.141-107.6.59c-14.674.083-26.619 12.137-26.545 26.799z" fill="#FFC107"/><path d="M343.759 112.144c-.281 11.217-9.6 20.082-20.845 19.801a20.174 20.174 0 01-9.275-2.494l-.957 38.106 49.047 1.228a20.18 20.18 0 00-2.497 9.278c-.281 11.218 8.594 20.539 19.826 20.82 11.245.281 20.563-8.584 20.845-19.801a20.133 20.133 0 00-2.029-9.392l49.047 1.228 2.151-85.68c.367-14.648-11.331-26.933-25.997-27.3l-107.574-2.694-.957 38.119a20.072 20.072 0 019.39-2.039c11.232.268 20.107 9.588 19.825 20.82z" fill="#22AC83"/><path d="M180.388 188.996v85.708c0 14.652 12.003 26.64 26.673 26.64h107.608v-38.117a20.225 20.225 0 01-9.335 2.26c-11.249 0-20.355-9.095-20.355-20.317 0-11.235 9.106-20.317 20.355-20.317 3.367 0 6.533.808 9.335 2.261v-38.131h-49.075a20.012 20.012 0 002.276-9.324c0-11.235-9.106-20.317-20.341-20.317-11.249 0-20.355 9.082-20.355 20.317 0 3.35.808 6.525 2.263 9.324h-49.049v.013z" fill="#5346F6"/></svg>