<svg width="924" height="683" viewBox="0 0 924 683" fill="none" xmlns="http://www.w3.org/2000/svg"><path opacity=".6" d="M665.073 21.644C781.763-5.77 888.627 49.06 919.831 127.46c31.204 78.4-120.023 236.164-211.773 322.741-91.75 86.578-75.953 225.725-278.075 232.627-137.654 4.7-286.137-88.012-352.973-212.497C10.174 345.847-31.048 192.647 29.356 82.291 89.76-28.066 227.412-7.977 374.418 30.9c111.346 29.446 192.538 13.795 290.655-9.256z" fill="#5346F6" fill-opacity=".05"/><path d="M683.183 316.302s-49.828-25.909-94.15-25.244c-44.322.666-107.975 25.244-107.975 25.244s32.481 65.745 36.164 114.66c1.758 23.126 2.736 66.306 9.19 77.136 13.322 0 123.719 9.252 128.877 5.014 5.157-4.298 8.331-63.504 8.331-89.051 0-50.67 19.563-107.759 19.563-107.759z" fill="#00C2FF"/><path d="M557.06 279.598l.491 26.267s11.414 10.443 28.979 10.472c17.564.03 27.14-9.084 27.535-12.327l.6-70.264-57.605 45.852z" fill="#C28989"/><path d="M613.523 249.354l.027 50.245" stroke="#220D4E" stroke-width="2.349" stroke-linecap="round" stroke-linejoin="round"/><path d="M623.988 207.835c-3.888 1.054-7.068 3.823-9.304 6.253-.482-7.11-2.067-15.968-2.443-21.067-.995-14.929-19.44-19.768-38.718-19.242-17.621.434-40.679 9.781-42.262 15.993-1.582 6.212-2.133 16.487-2.361 28.446-.57 24.846 4.336 49.596 18.152 62.507 11.234 10.48 33.066 4.919 40.324.34 12.219-7.674 22.854-18.245 26.081-31.66.594-2.454 1.02-7.867 1.227-11.485 4.084-1.205 14.284-3.897 19.122-12.708 7.221-12.927-1.554-19.6-9.818-17.377z" fill="#C28989" stroke="#220D4E" stroke-width="2.349" stroke-miterlimit="10" stroke-linecap="round" stroke-linejoin="round"/><path d="M537.317 245.983c11.058 1.35 21.143-6.644 22.509-17.818 1.365-11.175-6.496-21.36-17.554-22.71-11.057-1.35-21.142 6.644-22.508 17.818-1.308 11.181 6.496 21.36 17.553 22.71zm52.322-2.659c11.174 1.365 21.36-6.5 22.711-17.558 1.352-11.059-6.639-21.143-17.813-22.508-11.173-1.364-21.359 6.5-22.711 17.559-1.41 11.051 6.582 21.135 17.813 22.507zm-30.569-23.889c.882-.48 5.925-2.802 13.028-.348" stroke="#220D4E" stroke-width="2.349" stroke-miterlimit="10" stroke-linecap="round" stroke-linejoin="round"/><path d="M572.076 250.521l-12.268-4.906 3.284-26.864m-25.733-16.835s4.531-1.503 11.997 1.348" stroke="#220D4E" stroke-width="2.349" stroke-miterlimit="10" stroke-linecap="round" stroke-linejoin="round"/><path d="M540.387 231.454c1.389.169 2.801-2.244 3.183-5.37.382-3.126-.406-5.808-1.796-5.979-1.389-.169-2.801 2.245-3.183 5.371-.325 3.133.464 5.815 1.796 5.978zm43.519-2.735c1.389.169 2.801-2.243 3.183-5.37.382-3.126-.406-5.808-1.796-5.979-1.389-.169-2.801 2.245-3.183 5.371-.382 3.127.406 5.808 1.796 5.978z" fill="#220D4E"/><path d="M586.543 200.336s4.271-2.254 11.034.1m-41.969 62.706c10.038 2.821 22.669 5.504 29.933-6.647" stroke="#220D4E" stroke-width="2.349" stroke-miterlimit="10" stroke-linecap="round" stroke-linejoin="round"/><path d="M543.621 185.951c2.234-5.448 10.767-7.522 15.4-8.418 4.482 6.272 13.345 14.871 26.254 14.871s24.25 15.172 29.33 21.444l8.322-7.107c-.448-2.539-1.075-8.961 0-14.337 1.346-6.719 13.037-15.694 3.355-37.198-7.255-16.113-29.203-19.846-41.007-16.113-2.391-3.136-9.196-8.616-16.368-8.974-10.093-.505-16.803 5.539-20.837 8.974-3.586.149-12.371 1.344-18.826 4.927-9.196 5.106-13.447 12.531-13.447 22.849-2.839.447-9.125 4.018-6.507 17.471 4.359 22.401 27.276 15.232 38.78 14.785-1.793-2.241-7.096-6.721-4.449-13.174z" fill="#220D4E"/><path d="M163.625 525.144h432.162m-460.266 0h10.054" stroke="#220D4E" stroke-width="2" stroke-linecap="round" stroke-linejoin="round"/><path d="M403.576 146.75c-114.056-28.859-167.605 17.637-183.356 43.289-89.513 164.497 144.403 229.444 128.975 131.79-23.1-146.22-200.2 23.087-75.075 122.17 14.759 10.262 44.275 30.591 75.075 45.213" stroke="#220D4E" stroke-width="2" stroke-linecap="round" stroke-linejoin="round" stroke-dasharray="8 11"/><path d="M735.751 541.263c9.301-3.575-23.625-129.522-23.625-129.522s-44.82 32.268-52.224 37.65l15.947 44.785-71.444-8.918-13.446 37.436s23.051 7.68 58.587 15.359c35.535 7.679 76.904 6.786 86.205 3.21z" fill="#C28989"/><path d="M615.926 486.219l74.379 10.924M672.83 485.17l2.193 8.189" stroke="#220D4E" stroke-width="2.349" stroke-linecap="round" stroke-linejoin="round"/><path d="M531.649 490.833c1.297.341 12.075-2.005 17.887-3.388l-14.269 15.349c-5.542 1.742-11.333.26-14.834-.469-6.049-1.26-6.763-9.824-1.07-11.614 2.168-.681 10.665-.306 12.286.122z" fill="#C28989" stroke="#220D4E" stroke-width="2.349" stroke-linecap="round" stroke-linejoin="round"/><path d="M611.71 485.257c-15.026 0-56.382-1.616-66.643 3.175-12.825 5.989-19.936 7.617-24.825 9.853-4.891 2.238-28.169 12.222-25.112 21.621 1.578 4.852 14.297-2.153 18.976-4.139-3.656 2.848-7.517 6.175-8.599 8.066-2.087 3.65-1.856 9.888 4.308 10.232 2.528.14 4.99-1.082 7.332-2.803-2.299 3.232-4.191 6.193-4.33 7.04-.327 1.996-.341 6.5 4.303 7.445 4.517.918 5.245-3.245 6.826-4.058.23 1.133-1.467 5.234 5.948 6.118 5.158.614 7.836-6.712 12.308-9.118 3.668-1.2 11.321-3.495 12.583-3.063 1.577.541 16.661 2.548 20.464 1.669 3.804-.878 13.7-4.787 18.534-8.322 1.742-1.272 4.425-2.439 7.8-5.645 4.219-5.434 9.177-10.233 12.658-20.792 2.112-6.405.472-16.392-2.531-17.279z" fill="#C28989"/><path d="M516.41 531.781c.162-.109.323-.222.484-.337m99.034-45.228c-19.409-2.879-60.602-2.576-70.863 2.216-12.825 5.989-19.935 7.616-24.825 9.853-4.89 2.237-28.491 12.545-25.435 21.944 1.542 4.739 14.278-2.359 18.969-4.323l102.154-29.69zm-76.206 16.234c-3.969 1.5-17.012 7.565-18.358 8.156-1.348.592-13.772 9.578-15.859 13.227-2.087 3.649-1.856 9.887 4.308 10.231 2.265.126 4.477-.843 6.597-2.283l23.312-29.331zm4.388 9.704c-5.349.727-16.765 6.014-18.547 7.149-1.391.887-5.891 7.302-9.153 12.478l27.7-19.627zm-27.7 19.627c-1.96 3.11-3.472 5.772-3.595 6.521-.327 1.995-.341 6.499 4.304 7.444 4.516.918 5.244-3.245 6.825-4.057.231 1.132-1.465 5.233 5.949 6.117 5.157.614 7.835-6.712 12.307-9.118 3.668-1.2 11.321-3.495 12.583-3.062 1.577.54 16.661 2.547 20.464 1.669 3.804-.879 17.052-1.669 26.335-14.603l-85.172 9.089z" stroke="#220D4E" stroke-width="2.349" stroke-linecap="round" stroke-linejoin="round"/><path d="M524.119 541.524l13.055-16.171 13.029-3.271" stroke="#220D4E" stroke-width="2.349" stroke-linecap="round" stroke-linejoin="round"/><path d="M657.402 458.662l69.047-51.877-43.266-90.248-58.932 2.684 33.151 139.441z" fill="#00C2FF"/><path d="M657.742 364.873v93.694" stroke="#220D4E" stroke-width="2.349" stroke-linecap="round" stroke-linejoin="round"/><path d="M510.395 391.271l-6.167 31.174 27.534-53.783 32.334 11.269-46.794 123.158c-9.86 25.951-47.579 20.959-50.049-6.69-3.461-38.754-6.231-75.283-5.445-85.588 1.862-24.39 48.587-19.54 48.587-19.54z" fill="#C28989"/><path d="M491.143 444.257l-8.627 7.46" stroke="#220D4E" stroke-width="2.349" stroke-linecap="round" stroke-linejoin="round"/><path d="M532.73 370.614l4.214-48.847 7.023-4.278 21.709-12.835 15.195-9.77s29.689 22.157 33.328 33.587c.638 1.979-3.831 8.429-7.598 6.832-3.831-1.596-24.708-21.901-24.708-21.901l6.448 19.539s-3.32 23.945-6.448 23.945c3.767.064-19.718 27.199-19.718 27.199l-29.445-13.471zm10.094-52.744l9.577-30.778s30.902-14.495 33.902-14.495c3.001 0 4.788 3.832 3.895 6.449-.894 2.619-23.112 18.007-23.112 18.007l-1.278 6.513" fill="#C28989"/><path d="M542.824 317.87l9.577-30.778s30.902-14.495 33.902-14.495c3.001 0 4.788 3.832 3.895 6.449-.894 2.619-23.112 18.007-23.112 18.007l-1.278 6.513" stroke="#220D4E" stroke-width="2.349" stroke-linecap="round" stroke-linejoin="round"/><path d="M545.819 324.127s30.583-12.323 35.243-11.429c4.661.894 22.283 21.838 25.475 22.603 3.193.767 7.598-1.595 7.598-6.831 0-3.193-29.944-32.949-33.328-32.949-3.384 0-43.927 26.244-43.927 26.244l-4.213 48.848" stroke="#220D4E" stroke-width="2.349" stroke-linecap="round" stroke-linejoin="round"/><path d="M581.898 356.886s-5.874.511-7.151-2.873c-1.276-3.448 0-14.814 0-14.814h-5.043l-10.918 7.79 2.298 14.494m20.043-48.783c4.915 4.725 7.213 20.241 7.213 20.241" stroke="#220D4E" stroke-width="2.349" stroke-linecap="round" stroke-linejoin="round"/><path d="M568.106 321.512s18.898 8.939 20.239 11.429c1.277 2.49-3.319 16.666-3.319 16.666" stroke="#220D4E" stroke-width="2.349" stroke-linecap="round" stroke-linejoin="round"/><path d="M509.933 410.811l-60.637 3.107 31.762-97.38 49.569 44.894-20.694 49.379z" fill="#00C2FF"/><path d="M532.672 367.75l-47.328 87.588" stroke="#220D4E" stroke-width="2.349" stroke-linecap="round" stroke-linejoin="round"/><g filter="url(#filter0_d_23_384)"><path d="M274.026 125.587h-30.592c-9.099 0-16.476 7.372-16.476 16.466v28.224c0 9.094 7.377 16.466 16.476 16.466h30.592c9.099 0 16.475-7.372 16.475-16.466v-28.224c0-9.094-7.376-16.466-16.475-16.466z" fill="#26BB8F"/></g><path d="M257.855 141.809c.376-1.158 2.014-1.158 2.39 0l2.557 7.866c.168.517.651.867 1.195.867h8.276c1.217 0 1.724 1.558.738 2.273l-6.694 4.861c-.441.32-.626.887-.457 1.405l2.557 7.866c.376 1.157-.949 2.119-1.934 1.404l-6.695-4.861a1.253 1.253 0 00-1.477 0l-6.695 4.861c-.985.715-2.31-.247-1.934-1.404l2.557-7.866a1.255 1.255 0 00-.457-1.405l-6.694-4.861c-.986-.715-.479-2.273.738-2.273h8.276c.545 0 1.027-.35 1.195-.867l2.558-7.866z" fill="#fff"/><g filter="url(#filter1_d_23_384)"><path d="M353.914 269.883h-30.593c-9.099 0-16.475 7.372-16.475 16.466v28.223c0 9.094 7.376 16.467 16.475 16.467h30.593c9.099 0 16.475-7.373 16.475-16.467v-28.223c0-9.094-7.376-16.466-16.475-16.466z" fill="#5346F6"/></g><path d="M347.913 302.061h-16.021a1.378 1.378 0 01-1.328-1.01l-3.022-10.903a1.377 1.377 0 011.328-1.745h21.461c.881 0 1.536.816 1.345 1.676l-2.418 10.902a1.377 1.377 0 01-1.345 1.08zm-15.68 15.801c1.263 0 2.286-1.05 2.286-2.345 0-1.295-1.023-2.346-2.286-2.346-1.264 0-2.287 1.051-2.287 2.346 0 1.295 1.023 2.345 2.287 2.345zm16.783 0c1.263 0 2.287-1.05 2.287-2.345 0-1.295-1.024-2.346-2.287-2.346s-2.287 1.051-2.287 2.346c0 1.295 1.024 2.345 2.287 2.345z" fill="#fff"/><path fill-rule="evenodd" clip-rule="evenodd" d="M335.628 301.63c.53.878.248 2.019-.631 2.549l-4.884 2.947-.959-1.589.949 1.596c-.165.098-.227.2-.257.283a.624.624 0 00-.007.371.633.633 0 00.195.316.55.55 0 00.366.111h19.037a1.857 1.857 0 110 3.713H330.4c-4.365 0-5.948-5.748-2.202-7.982l4.879-2.945a1.859 1.859 0 012.551.63z" fill="#fff"/><path fill-rule="evenodd" clip-rule="evenodd" d="M319.521 281.801a1.858 1.858 0 012.35-1.174l4.536 1.511c.568.19 1.009.641 1.187 1.212l1.021 3.296h23.87a1.858 1.858 0 011.807 2.285l-3.401 14.355a1.859 1.859 0 01-1.808 1.43h-17.387c-.815 0-1.535-.53-1.775-1.308l-5.594-18.048-3.632-1.21a1.857 1.857 0 01-1.174-2.349zm10.245 8.558l3.298 10.643h14.55l2.522-10.643h-20.37z" fill="#fff"/><path d="M149.414 488.762c13.658 3.172 29.086 13.378 33.713 20.431 5.144-7.875 14.126-23.484 19.893-33.233 6.896-11.659 23.804-37.419 12.722-46.655-8.932-7.443-24.195 17.31-27.281 13.681-3.085-3.628 19.403-45.666 2.916-51.393-12.425-4.315-18.353 7.794-23.281 9.281-4.928 1.488-4.523-35.626-26.242-29.071-16.544 4.995-1.081 31.723-5.438 38.635-2.486 3.943-22.453-7.493-27.28 8.236-4.699 15.309 38.821 30.718 38.669 36.585-.152 5.867-31.587-2.858-33.792 10.202-2.205 13.059 18.524 19.383 35.401 23.301z" fill="#26BB8F"/><path d="M170.4 482.202c7.71 7.928 14.711 18.601 14.64 25.284 6.973-3.079 19.982-9.697 28.213-13.764l.137-.068c9.861-4.872 26.533-13.11 23.283-23.947-2.632-8.774-17.923-.484-18.358-4.221-.434-3.738 35.205-23.904 26.75-34.742-6.371-8.167-17.506-.972-21.469-2.073-3.962-1.1 14.388-25.477-3.077-30.326-13.302-3.694-12.537 22.736-18.552 25.505-3.431 1.58-15.494-16.806-25.78-8.341-10.012 8.238 8.762 33.918 6.028 37.776-2.735 3.859-13.433-6.97-20.768.824-7.334 7.795-.573 18.299 8.953 28.093z" fill="#26BB8F"/><path d="M170.4 482.202c7.71 7.928 14.711 18.601 14.64 25.284 6.973-3.079 19.982-9.697 28.213-13.764l.137-.068c9.861-4.872 26.533-13.11 23.283-23.947-2.632-8.774-17.923-.484-18.358-4.221-.434-3.738 35.205-23.904 26.75-34.742-6.371-8.167-17.506-.972-21.469-2.073-3.962-1.1 14.388-25.477-3.077-30.326-13.302-3.694-12.537 22.736-18.552 25.505-3.431 1.58-15.494-16.806-25.78-8.341-10.012 8.238 8.762 33.918 6.028 37.776-2.735 3.859-13.433-6.97-20.768.824-7.334 7.795-.573 18.299 8.953 28.093z" fill="#26BB8F"/><path d="M184.598 511.754c11.089-8.794 15.326-16.081-.268-33.532-10.799-12.087-25.491-20.66-21.441-27.328 5.82-9.584 14.377-4.528 21.628 2.485 7.25 7.011 14.305 28.542 23.02 24.41 7.232-3.431 6.905-19.11-3.758-25.719-12.02-7.45-19.137-20.699-13.468-24.101 5.668-3.401 12.174-2.361 21.311 11.781 7.309 11.314 16.061 8.627 18.909 4.245 4.401-6.775-15.019-8.987-17.164-22.986-.947-6.179 2.154-13.42 6.345-18.763" stroke="#220D4E" stroke-width="1.751" stroke-linecap="round"/><path d="M149.676 394.307a.812.812 0 10-1.413.803l1.413-.803zm25.554 99.361a.814.814 0 101.609-.238l-1.609.238zm-8.81-47.365a.813.813 0 001.583-.376l-1.583.376zm5.901 19.472a.813.813 0 10-1.599.301l1.599-.301zm-24.058-70.665c7.916 13.927 13.833 32.987 18.157 51.193l1.583-.376c-4.334-18.245-10.293-37.488-18.327-51.62l-1.413.803zm22.459 70.966c2.057 10.892 3.574 21.283 4.508 27.592l1.609-.238c-.933-6.304-2.453-16.727-4.518-27.655l-1.599.301z" fill="#220D4E"/><path d="M153.784 496.398a1.686 1.686 0 011.658-1.994h59.614c1.053 0 1.848.954 1.659 1.988l-9.256 50.414a1.684 1.684 0 01-1.657 1.381h-40.946a1.685 1.685 0 01-1.656-1.376l-9.416-50.413z" fill="#fff"/><path d="M153.413 494.404h61.643c1.053 0 1.848.954 1.659 1.988l-9.509 51.795m-52.839-45.658h54.559m-3.046 19.265l-3.339 19.498" stroke="#220D4E" stroke-width="1.751" stroke-linecap="round"/><path d="M642.897 544.705H389.451a3.961 3.961 0 100 7.921h253.446a3.961 3.961 0 100-7.921z" fill="#5346F6"/><path d="M353.254 429.359h187.473l39.676 123.267H392.93l-39.676-123.267z" fill="#5346F6"/><path d="M346.308 429.36h187.473l39.676 123.266H385.985L346.308 429.36z" fill="#fff"/><path d="M461.723 506.668c8.084 0 14.638-5.74 14.638-12.822 0-7.082-6.554-12.823-14.638-12.823-8.085 0-14.639 5.741-14.639 12.823 0 7.082 6.554 12.822 14.639 12.822z" fill="#26BB8F"/><g filter="url(#filter2_d_23_384)"><path d="M302.901 411.292h-30.592c-9.099 0-16.476 7.373-16.476 16.467v28.223c0 9.094 7.377 16.466 16.476 16.466h30.592c9.099 0 16.475-7.372 16.475-16.466v-28.223c0-9.094-7.376-16.467-16.475-16.467z" fill="#FFC107"/></g><path fill-rule="evenodd" clip-rule="evenodd" d="M272.034 456.862a2.745 2.745 0 012.738-2.753l25.768-.086a2.745 2.745 0 11.018 5.488l-25.768.086a2.747 2.747 0 01-2.756-2.735zm15.659-32.633a2.744 2.744 0 012.745 2.744l.001 13.795a2.746 2.746 0 01-5.492 0v-13.795a2.744 2.744 0 012.746-2.744z" fill="#fff"/><path fill-rule="evenodd" clip-rule="evenodd" d="M298.491 437.115a2.742 2.742 0 01-.246 3.872l-8.834 7.774a2.748 2.748 0 01-3.619.009l-8.763-7.638a2.743 2.743 0 01-.265-3.871 2.747 2.747 0 013.874-.266l6.95 6.058 7.028-6.185a2.746 2.746 0 013.875.247z" fill="#fff"/><g filter="url(#filter3_d_23_384)" stroke-width="2" stroke-linecap="round" stroke-linejoin="round"><path d="M414.188 42.95v16.194m-48.608 3.238l12.961 12.953m84.244-12.953l-9.72 12.953" stroke="#220D4E"/><path d="M449.829 110.771a36.271 36.271 0 00-4.487-17.675c-2.968-5.38-7.251-9.854-12.418-12.973-5.168-3.118-11.036-4.77-17.015-4.788a33.1 33.1 0 00-17.042 4.683c-5.186 3.086-9.495 7.534-12.494 12.897a36.27 36.27 0 00-4.589 17.645 36.263 36.263 0 004.548 17.658c2.987 5.37 7.285 9.828 12.463 12.927v31.345h34.023v-31.345c5.159-3.069 9.447-7.491 12.433-12.823a36.09 36.09 0 004.578-17.551z" fill="#FFC107" stroke="#FFAC25"/><path d="M386.373 92.913a36.271 36.271 0 00-4.589 17.647m34.125-35.225a33.117 33.117 0 0117.015 4.788c5.167 3.119 9.45 7.593 12.418 12.973a36.268 36.268 0 014.487 17.675 36.093 36.093 0 01-4.578 17.551c-2.986 5.331-7.274 9.754-12.433 12.823v20.01l-16.909-85.82zm50.12 35.623h9.72m-119.887 0h6.481m35.64 71.248h35.643m-29.161 9.715h25.923" stroke="#220D4E"/></g><defs><filter id="filter0_d_23_384" x="196.958" y="125.587" width="123.543" height="136.156" filterUnits="userSpaceOnUse" color-interpolation-filters="sRGB"><feFlood flood-opacity="0" result="BackgroundImageFix"/><feColorMatrix in="SourceAlpha" values="0 0 0 0 0 0 0 0 0 0 0 0 0 0 0 0 0 0 127 0" result="hardAlpha"/><feOffset dy="45"/><feGaussianBlur stdDeviation="15"/><feColorMatrix values="0 0 0 0 0.0968 0 0 0 0 0.08 0 0 0 0 0.2 0 0 0 0.06 0"/><feBlend in2="BackgroundImageFix" result="effect1_dropShadow_23_384"/><feBlend in="SourceGraphic" in2="effect1_dropShadow_23_384" result="shape"/></filter><filter id="filter1_d_23_384" x="276.846" y="269.883" width="123.543" height="136.156" filterUnits="userSpaceOnUse" color-interpolation-filters="sRGB"><feFlood flood-opacity="0" result="BackgroundImageFix"/><feColorMatrix in="SourceAlpha" values="0 0 0 0 0 0 0 0 0 0 0 0 0 0 0 0 0 0 127 0" result="hardAlpha"/><feOffset dy="45"/><feGaussianBlur stdDeviation="15"/><feColorMatrix values="0 0 0 0 0.0968 0 0 0 0 0.08 0 0 0 0 0.2 0 0 0 0.06 0"/><feBlend in2="BackgroundImageFix" result="effect1_dropShadow_23_384"/><feBlend in="SourceGraphic" in2="effect1_dropShadow_23_384" result="shape"/></filter><filter id="filter2_d_23_384" x="225.833" y="411.292" width="123.543" height="136.156" filterUnits="userSpaceOnUse" color-interpolation-filters="sRGB"><feFlood flood-opacity="0" result="BackgroundImageFix"/><feColorMatrix in="SourceAlpha" values="0 0 0 0 0 0 0 0 0 0 0 0 0 0 0 0 0 0 127 0" result="hardAlpha"/><feOffset dy="45"/><feGaussianBlur stdDeviation="15"/><feColorMatrix values="0 0 0 0 0.0968 0 0 0 0 0.08 0 0 0 0 0.2 0 0 0 0.06 0"/><feBlend in2="BackgroundImageFix" result="effect1_dropShadow_23_384"/><feBlend in="SourceGraphic" in2="effect1_dropShadow_23_384" result="shape"/></filter><filter id="filter3_d_23_384" x="324.862" y="41.951" width="181.887" height="225.97" filterUnits="userSpaceOnUse" color-interpolation-filters="sRGB"><feFlood flood-opacity="0" result="BackgroundImageFix"/><feColorMatrix in="SourceAlpha" values="0 0 0 0 0 0 0 0 0 0 0 0 0 0 0 0 0 0 127 0" result="hardAlpha"/><feOffset dy="45"/><feGaussianBlur stdDeviation="15"/><feColorMatrix values="0 0 0 0 0.0968 0 0 0 0 0.08 0 0 0 0 0.2 0 0 0 0.06 0"/><feBlend in2="BackgroundImageFix" result="effect1_dropShadow_23_384"/><feBlend in="SourceGraphic" in2="effect1_dropShadow_23_384" result="shape"/></filter></defs></svg>