<svg width="500" height="438" viewBox="0 0 500 438" fill="none" xmlns="http://www.w3.org/2000/svg"><path d="M250.738 437c120.398 0 218-97.602 218-218s-97.602-218-218-218-218 97.602-218 218 97.602 218 218 218z" stroke="#220D4E" stroke-width="2" stroke-linecap="round" stroke-dasharray="5.11 7.66"/><path d="M182.854 199.159l20.05-10.857-4.656-20.741-22.766-1.243-8.632-14.566 9.827-20.549-15.971-14.034-19.143 12.356-15.556-6.702-4.131-22.395-21.171-1.98-8.238 21.246-16.528 3.715-16.512-15.705-18.296 10.835 5.831 22.034-11.199 12.722-22.589-3.051-8.44 19.521 17.669 14.39-1.577 16.846L.798 211.854l4.656 20.74 22.767 1.244 8.632 14.566-9.828 20.549 15.972 14.033 19.143-12.355 15.556 6.702 4.131 22.395 21.171 1.98 8.238-21.247 16.527-3.714 16.512 15.705 18.296-10.835-5.831-22.034 11.2-12.722 22.601 2.98 8.44-19.522-17.67-14.39 1.543-16.77zm-73.309 49.739c-26.965 4.25-52.275-14.16-56.523-41.113-4.248-26.954 14.174-52.255 41.139-56.505 26.965-4.249 52.275 14.16 56.523 41.114 4.248 26.953-14.173 52.255-41.139 56.504z" fill="#00C2FF"/><path d="M243.04 14.896v41.356m-124.08 8.271l33.085 33.085m215.051-33.082l-24.814 33.085" stroke="#FFC107" stroke-width="2" stroke-linecap="round" stroke-linejoin="round"/><path d="M334.014 188.119c.073-15.83-3.877-31.4-11.454-45.142-7.576-13.742-18.51-25.171-31.7-33.135-13.191-7.963-28.172-12.182-43.434-12.229-15.263-.047-30.268 4.078-43.504 11.96-13.236 7.882-24.236 19.243-31.891 32.938-7.655 13.695-11.695 29.24-11.714 45.07-.018 15.83 3.986 31.385 11.61 45.099 7.623 13.714 18.596 25.102 31.814 33.017v73.065a6.99 6.99 0 006.99 6.991h72.868a6.991 6.991 0 006.991-6.991v-73.065c13.168-7.838 24.115-19.134 31.738-32.752 7.623-13.619 11.653-29.079 11.686-44.826z" fill="#FFC107" stroke="#FFC107" stroke-width="2" stroke-linecap="round" stroke-linejoin="round"/><path d="M170.253 140.605c-7.837 14.019-11.973 29.932-11.991 46.137m89.17-92.098c15.624.048 30.96 4.366 44.462 12.519 13.503 8.152 24.696 19.851 32.451 33.919 7.756 14.067 11.8 30.006 11.725 46.21-.034 16.12-4.16 31.946-11.963 45.887-7.803 13.941-19.009 25.505-32.489 33.528l2.357 69.211c.232 6.798-5.228 12.43-12.03 12.408l-16.653-.052-17.86-253.63z" stroke="#220D4E" stroke-width="2" stroke-linecap="round" stroke-linejoin="round"/><path d="M313.432 193.835c.062-13.467-3.299-26.714-9.745-38.405-6.446-11.691-15.748-21.414-26.97-28.19-11.222-6.775-23.967-10.364-36.952-10.404" stroke="#FFAC25" stroke-width="2" stroke-linecap="round" stroke-linejoin="round"/><path d="M214.583 334.603l26.531.142" stroke="#FFAC25" stroke-width="2" stroke-linecap="round"/><path d="M375.371 188.593h24.814m-306.038.005h16.543" stroke="#FFC107" stroke-width="2" stroke-linecap="round" stroke-linejoin="round"/><path d="M201.671 370.567h90.985m-76.37-29.455l23.126-.223m-21.192 54.49h66.17" stroke="#220D4E" stroke-width="2" stroke-linecap="round" stroke-linejoin="round"/><path d="M397.73 417.084l24.175-22.925 24.176-22.924-26.478-27.555a15.668 15.668 0 01-4.026 6.265c-6.313 6.01-16.288 5.759-22.312-.547-6.015-6.301-5.79-16.282.522-22.292a16.152 16.152 0 016.615-3.779l-26.428-27.464-21.413 20.4c-.679-2.349-1.933-4.564-3.728-6.457-6.019-6.315-16.005-6.548-22.303-.542-6.313 6.01-6.546 15.985-.528 22.3a15.574 15.574 0 006.278 4.021l-21.419 20.41 57.619 60.382c7.86 8.234 21.019 8.555 29.25.707z" fill="#22AC83"/><path d="M397.731 417.083l38.415-36.42" stroke="#220D4E" stroke-width="2" stroke-linecap="round" stroke-linejoin="round"/><path d="M394.17 413.111l48.139-45.873-26.265-27.531a15.675 15.675 0 01-4.027 6.265c-6.313 6.01-16.288 5.759-22.311-.547-6.015-6.301-5.791-16.282.522-22.291a15.444 15.444 0 016.461-3.707l-26.275-27.537-21.413 20.401c-.678-2.35-1.932-4.565-3.728-6.458-6.018-6.315-16.004-6.548-22.303-.542-6.313 6.01-6.546 15.985-.527 22.3a15.58 15.58 0 006.277 4.022l-21.418 20.409 57.619 60.382c7.859 8.234 21.018 8.555 29.249.707z" fill="#26BB8F"/><path d="M356.465 304.716l13.95-12.825 26.275 27.536a15.444 15.444 0 00-6.461 3.707c-6.313 6.009-6.537 15.99-.523 22.291 6.024 6.306 15.999 6.557 22.312.547a15.675 15.675 0 004.027-6.265l26.265 27.531-48.139 45.873c-8.231 7.848-21.39 7.528-29.249-.707l-28.81-30.191" stroke="#220D4E" stroke-width="2" stroke-linecap="round" stroke-linejoin="round"/><path d="M496.72 277.644l-30.488 57.798-34.458-17.981c-.002 2.442-.44 5.749-1.647 8.038-4.048 7.674-13.617 10.555-21.394 6.453-7.769-4.098-10.793-13.623-6.745-21.296a15.299 15.299 0 014.933-5.539l-38.287-20.272 13.738-26.045c1.414 2.014 7.667 6.094 9.995 7.322 7.778 4.103 17.347 1.221 21.394-6.453 4.043-7.665-.532-21.102-8.31-25.204-1.887-.996-6.304-1.071-9.209-1.08a.989.989 0 01-.854-1.486l13.656-23.668 78.832 41.488c10.143 5.35 14.123 17.917 8.844 27.925z" fill="#5346F6"/><path d="M493.161 273.671l-30.88 58.541-.005.009-33.914-17.889a15.425 15.425 0 01-1.795 7.194c-4.048 7.674-13.617 10.556-21.394 6.453-7.769-4.098-10.793-13.622-6.745-21.296a15.304 15.304 0 014.933-5.538l-33.933-17.9 13.739-26.044a15.94 15.94 0 005.64 4.948c7.778 4.103 17.347 1.221 21.395-6.453 4.043-7.664 1.023-17.198-6.755-21.301a15.978 15.978 0 00-7.269-1.861l13.733-26.035 74.405 39.247c10.144 5.351 14.124 17.917 8.845 27.925z" fill="#5346F6"/><path d="M493.162 273.671l-30.88 58.541-.004.01-33.915-17.89a15.411 15.411 0 01-1.794 7.194c-4.048 7.674-13.617 10.556-21.395 6.454-7.768-4.098-10.792-13.623-6.745-21.297a15.297 15.297 0 014.934-5.538l-33.933-17.899 13.738-26.045a15.947 15.947 0 005.641 4.949c7.778 4.102 17.346 1.22 21.394-6.453 4.043-7.665 1.023-17.199-6.754-21.301a15.96 15.96 0 00-7.27-1.861l11.49-22.026" stroke="#220D4E" stroke-width="2" stroke-linecap="round" stroke-linejoin="round"/></svg>