<svg width="489" height="494" viewBox="0 0 489 494" fill="none" xmlns="http://www.w3.org/2000/svg"><path d="M314.438 309.017s-25.26-36.541-28.203-40.465c-2.943-4.047-9.932-8.584-9.932-8.584l-23.298-15.327s-41.324-4.66-35.683-8.216c5.64-3.679 17.167-12.998 28.693-19.62 2.207-1.226 4.169-2.575 6.009-3.801 0 0-30.533 5.395-43.776 7.725-13.243 2.33-37.768 14.224-37.768 14.224l-23.911-8.583-4.659-.981-23.544 80.562 2.943 2.698s28.816 18.884 36.541 27.835c27.468 31.514 80.317 53.095 85.222 54.689 5.028 1.717 17.29-6.253 18.271-8.338.981-1.962-.613-3.924-1.962-9.319 3.679 4.659 8.338 6.253 11.649 5.027 3.311-1.349 10.3-6.989 10.913-9.564.613-2.698-6.008-13.243-6.008-13.243s7.602 7.97 12.875 9.319c5.273 1.349 14.224-7.971 15.573-11.281 1.349-3.311-9.442-17.535-9.442-17.535s13.734 13.243 17.412 12.63c3.679-.613 13.244-10.668 12.876-16.554-.245-6.131-10.791-23.298-10.791-23.298z" fill="#C28989"/><path d="M372.806 223.795l-31.514 11.159s-26.854-13.979-31.514-16.554c-4.659-2.698-25.873-10.913-36.173-13.243-8.338-1.839-13.611 2.575-21.459 7.848-1.839 1.226-3.801 2.452-6.008 3.801-11.649 6.622-26.977 14.837-32.618 18.516-5.64 3.678-12.262 42.55-12.875 47.087-.613 4.659 12.998 5.027 22.194-2.943 8.829-7.603 12.263-24.893 12.263-24.893l17.902-9.932 23.299 15.205s6.989 4.537 9.932 8.584c2.943 4.046 28.203 40.465 28.203 40.465s10.668 17.289 10.913 23.175c0 0 29.552-19.619 32.495-21.949 2.943-2.33 41.814-13.243 41.814-13.243l-26.854-73.083z" fill="#F9C2A4"/><path d="M399.66 297l-26.854-73.327-31.514 11.281s-26.854-13.979-31.514-16.554c-4.659-2.698-25.873-10.913-36.173-13.243-8.338-1.839-13.611 2.575-21.459 7.848-1.839 1.226-3.801 2.452-6.008 3.801-11.649 6.622-26.977 14.837-32.618 18.516-5.64 3.678-12.262 42.55-12.875 47.087-.613 4.659 12.998 5.027 22.194-2.943 8.829-7.603 12.263-24.893 12.263-24.893l17.902-9.932" stroke="#220D4E" stroke-width="2.119" stroke-miterlimit="10" stroke-linecap="round"/><path d="M276.301 312.329s1.226 1.717 3.065 4.169a78.24 78.24 0 013.188 4.292l3.679 4.782c1.349 1.594 2.575 3.188 3.801 4.782 1.227 1.472 2.33 2.943 3.311 4.17v.122c2.453 2.943 5.028 5.518 7.971 7.848 3.923 3.188 9.074 6.989 10.913 6.376 3.065-.981 7.97-5.272 11.281-10.913 3.311-5.641.981-14.102-16.063-38.748 0 0-6.622-13.244-17.045-25.751m-45.615 83.628s.981 1.226 2.33 2.943c.736.858 1.594 1.839 2.452 2.942l2.943 3.311 2.943 3.311c.981 1.104 1.84 1.962 2.575 2.82a70.1 70.1 0 012.575 2.698s2.821 3.188 6.009 3.679c3.188.49 5.272-.246 10.055-4.047 4.782-3.801 5.518-5.64 4.782-7.97-.736-2.33-7.357-16.309-21.949-29.062" stroke="#220D4E" stroke-width="2.119" stroke-miterlimit="10" stroke-linecap="round"/><path d="M152.07 225.023c-20.723-9.32-115.743-50.261-115.743-50.261s-19.882 42.977-21.822 75.361c-1.94 32.383.816 45.755.816 45.755l89.663 40.24h.122c1.226-.981 14.96-18.516 28.326-49.907.123-.246.245-.613.368-.859 6.989-16.431 18.393-56.651 18.27-60.329z" fill="#00C2FF"/><path d="M344.602 225.022c0 13.121 40.219 97.73 46.964 111.095h.122l54.761-29.828s4.211-17.055 2.516-51.019c-1.695-33.964-16.185-67.987-16.185-67.987s-67.455 28.42-88.178 37.739z" fill="#26BB8F"/><path d="M259.379 373.64s2.698 6.744 1.84 8.829c-1.472 3.556-11.527 9.932-16.432 9.074-4.905-.859-11.771-4.537-11.771-4.537m42.917-31.267s9.932 9.441 12.875 9.319c3.065-.245 5.886-1.104 10.177-4.66 4.292-3.556 4.905-4.782 5.396-6.621.49-1.84-5.763-12.63-6.99-14.347" stroke="#220D4E" stroke-width="2.119" stroke-miterlimit="10" stroke-linecap="round"/><path d="M184.214 364.32c2.82-6.867 10.79-18.761 15.573-24.647 4.291-5.15 10.913-5.518 14.959-1.349 3.066 3.188 6.132 8.216-4.537 29.92-7.847 16.063-16.308 9.932-19.619 8.216-3.311-1.717-8.093-7.971-6.376-12.14z" fill="#F9C2A4" stroke="#220D4E" stroke-width="2.119" stroke-miterlimit="10" stroke-linecap="round"/><path d="M178.94 360.765c4.782-5.273 11.771-17.29 14.96-23.911 2.697-5.886.245-11.895-5.151-13.611-4.046-1.349-9.687-1.962-24.156 16.554-10.668 13.611-1.717 18.393 1.104 20.477 1.716 1.227 5.027 2.33 8.093 2.33 2.084 0 3.924-.49 5.15-1.839z" fill="#F9C2A4"/><path d="M181.515 357.699c4.537-6.008 9.81-15.205 12.385-20.845 2.697-5.886.245-11.895-5.151-13.611-4.046-1.349-9.687-1.962-24.156 16.554-10.668 13.611-1.717 18.393 1.104 20.477 1.716 1.227 5.027 2.33 8.093 2.33" stroke="#220D4E" stroke-width="2.119" stroke-miterlimit="10" stroke-linecap="round"/><path d="M213.396 370.697s8.583-18.27 18.393-15.818c9.81 2.453 8.951 13.979 4.537 24.647-4.537 10.668-8.829 14.224-17.657 9.687-8.829-4.414-10.669-9.687-5.273-18.516z" fill="#F9C2A4" stroke="#220D4E" stroke-width="2.119" stroke-miterlimit="10" stroke-linecap="round"/><path d="M161.285 337.712s12.139-14.959 6.008-22.439c-6.253-7.48-15.818-1.84-23.052 6.376-7.235 8.216-8.461 13.488-.981 19.251 7.357 5.764 12.752 5.151 18.025-3.188z" fill="#F9C2A4"/><path d="M144.117 321.65a49.088 49.088 0 00-2.576 3.188c-1.348 1.839-2.329 3.433-2.942 5.027-1.472 4.047-.246 7.48 4.414 11.036 7.48 5.764 12.875 5.15 18.148-3.188 0 0 12.139-14.96 6.008-22.44-4.291-5.15-10.177-4.046-15.818-.245m1.593-90.005s-17.535 75.167-46.965 111.095m247.573-85.223s14.346 43.898 38.135 85.222" stroke="#220D4E" stroke-width="2.119" stroke-miterlimit="10" stroke-linecap="round"/><path d="M231.523 493c120.398 0 218-97.602 218-218s-97.602-218-218-218-218 97.602-218 218 97.602 218 218 218z" stroke="#220D4E" stroke-width="2" stroke-linecap="round" stroke-dasharray="5.11 7.66"/><path d="M112.598 334.345a11.013 11.013 0 00-12.25-9.575L9.741 337.161a10.142 10.142 0 00-6.636 4.018 10.133 10.133 0 00-1.849 7.534L12.378 428.5a11.013 11.013 0 0012.198 9.582l89.661-11.855a11.016 11.016 0 007.233-4.342 11.007 11.007 0 002.033-8.188l-10.905-79.352zM75.57 404.52a.74.74 0 01-.584.83l-17.56 2.412a.746.746 0 01-.794-.642l.88-24.196a1.359 1.359 0 00-.785-1.288 11.965 11.965 0 01-6.915-10.405 11.705 11.705 0 018.584-11.926c6.758-1.724 13.328 3.003 14.28 9.934a11.894 11.894 0 01-4.758 11.31l7.652 23.971z" fill="#5346F6"/><path d="M85.4 295.342a33.103 33.103 0 00-20.81-3.987l-22.834 3.136a33.829 33.829 0 00-15.452 6.452 33.813 33.813 0 00-10.467 13.071 36.363 36.363 0 00-3.041 20.372l3.395 24.72a7.974 7.974 0 001.633 2.823c1.123 1.017 3.845 1.108 6.157.79 2.313-.317 5.303-1.666 5.135-4.69-.228-4.013-2.661-18.171-3.574-24.222a28.345 28.345 0 01.36-9.611c2.026-8.533 8.859-15.281 17.735-16.5l22.835-3.136a20.98 20.98 0 0121.864 11.662c2.806 6.001 3.202 11.568 4.132 13.692.93 2.124 2.957 2.843 5.329 2.518l1.473-.203c2.21-.303 4.391-1.526 4.81-3.557.345-1.699-.362-5.039-.643-6.704-2.055-11.688-8.67-21.383-18.036-26.626z" fill="#5346F6"/><path d="M41.756 294.491a33.829 33.829 0 00-15.452 6.452 33.813 33.813 0 00-10.467 13.071 36.363 36.363 0 00-3.041 20.372l3.395 24.72a7.974 7.974 0 001.633 2.823c1.123 1.017 3.845 1.108 6.157.79 2.313-.317 5.303-1.666 5.135-4.69-.228-4.013-2.661-18.171-3.574-24.222a28.345 28.345 0 01.36-9.611c2.026-8.533 8.859-15.281 17.735-16.5l22.835-3.136a20.98 20.98 0 0112.837 2.259m6.092-11.477c9.366 5.243 15.981 14.938 18.036 26.626.281 1.665.988 5.005.643 6.704-.419 2.031-2.6 3.254-4.81 3.557l-1.473.203c-2.372.325-4.4-.394-5.33-2.518l-7.066-34.572z" stroke="#220D4E" stroke-width="2" stroke-linecap="round" stroke-linejoin="round"/><path d="M117.234 333.566a11.014 11.014 0 00-12.25-9.575l-90.608 12.391c-1.315.202-2.578.66-3.717 1.349a10.147 10.147 0 00-4.592 6.252 10.153 10.153 0 00-.176 3.951l11.123 79.787a11.008 11.008 0 0012.198 9.582l89.66-11.855a11.012 11.012 0 007.234-4.342 11.001 11.001 0 002.033-8.188l-10.905-79.352zm-37.028 70.175a.745.745 0 01-.584.83l-17.56 2.412a.746.746 0 01-.794-.642l.88-24.196a1.36 1.36 0 00-.785-1.288 11.966 11.966 0 01-6.915-10.405 11.705 11.705 0 018.584-11.926c6.758-1.723 13.328 3.003 14.28 9.934a11.904 11.904 0 01-4.758 11.311l7.652 23.97z" fill="#5346F6"/><path d="M80.206 403.741a.745.745 0 01-.584.83l-17.56 2.412a.746.746 0 01-.794-.642l.88-24.196a1.36 1.36 0 00-.785-1.288 11.966 11.966 0 01-6.915-10.405 11.705 11.705 0 018.584-11.926c6.758-1.723 13.328 3.003 14.28 9.934m39.922-34.894a11.014 11.014 0 00-4.147-7.319l4.147 7.319zm-102.858 2.816c-1.315.202-2.578.66-3.717 1.349l3.717-1.349zm-8.309 7.601a10.153 10.153 0 00-.176 3.951l11.123 79.787a11.008 11.008 0 0012.198 9.582l-23.145-93.32zm116.855 80.015a11.009 11.009 0 005.016-6.783l-5.016 6.783zM1.878 353.251l9.964 72.554m77.103 4.045l-48.615 6.677" stroke="#220D4E" stroke-width="2" stroke-linecap="round" stroke-linejoin="round"/><path d="M248.236 2.919l-.516 17.72m-53.268 1.994l13.763 14.589m92.556-11.49l-11.045 13.866" stroke="#FFC107" stroke-width="4" stroke-linecap="round" stroke-linejoin="round"/><path d="M285.055 78.274a39.724 39.724 0 00-4.344-19.485c-3.075-5.982-7.617-11.016-13.169-14.592-5.552-3.577-11.919-5.571-18.458-5.782-6.538-.211-13.019 1.369-18.789 4.581-5.769 3.212-10.624 7.943-14.075 13.715a39.72 39.72 0 00-5.581 19.165c-.205 6.782 1.316 13.497 4.411 19.468 3.096 5.971 7.655 10.987 13.22 14.544l-.912 31.302a3 3 0 002.911 3.086l31.215.909a3 3 0 003.086-2.911l.911-31.303c5.74-3.194 10.571-7.897 14.007-13.637a39.521 39.521 0 005.567-19.06z" fill="#FFC107" stroke="#FFC107" stroke-width="2" stroke-linecap="round" stroke-linejoin="round"/><path d="M216.22 56.711a39.72 39.72 0 00-5.581 19.165m38.445-37.461c6.539.21 12.906 2.205 18.458 5.781 5.552 3.577 10.094 8.611 13.169 14.593 3.075 5.982 4.573 12.703 4.344 19.485a39.521 39.521 0 01-5.567 19.06c-3.436 5.74-8.267 10.443-14.007 13.637l.121 32.369a3 3 0 01-3.097 3.01l-9.074-.293-4.347-107.642z" stroke="#220D4E" stroke-width="2" stroke-linecap="round" stroke-linejoin="round"/><path d="M273.572 81.182a33.814 33.814 0 00-3.696-16.577c-2.616-5.09-6.481-9.372-11.204-12.415a30.809 30.809 0 00-15.703-4.919" stroke="#FFAC25" stroke-width="6" stroke-linecap="round" stroke-linejoin="round"/><path d="M232.055 139.546l11.366.392" stroke="#FFAC25" stroke-width="6" stroke-linecap="round"/><path d="M302.769 78.994l10.631.31m-131.127-3.818l7.088.206" stroke="#FFC107" stroke-width="4" stroke-linecap="round" stroke-linejoin="round"/><path d="M226.073 154.795l38.984 1.135m-32.104-12.833l9.912.193m-10.011 22.343l28.351.826" stroke="#220D4E" stroke-width="2" stroke-linecap="round" stroke-linejoin="round"/><path d="M453.804 343.607h-20.413c-.913 0-1.653.74-1.653 1.652v51.4c0 .912.74 1.652 1.653 1.652h20.413c.912 0 1.652-.74 1.652-1.652v-51.4c0-.912-.74-1.652-1.652-1.652zm27.495-43.313h-20.413c-.913 0-1.653.74-1.653 1.653v94.707c0 .912.74 1.652 1.653 1.652h20.413c.912 0 1.652-.74 1.652-1.652v-94.707c0-.913-.74-1.653-1.652-1.653zm-85.265 43.315h-20.413c-.913 0-1.652.739-1.652 1.652v51.4c0 .912.739 1.652 1.652 1.652h20.413c.912 0 1.652-.74 1.652-1.652v-51.4c0-.913-.74-1.652-1.652-1.652zm27.493-43.312h-20.413c-.912 0-1.652.74-1.652 1.652v94.708c0 .912.74 1.652 1.652 1.652h20.413c.913 0 1.652-.74 1.652-1.652v-94.708c0-.912-.739-1.652-1.652-1.652z" fill="#00C2FF"/><path d="M455.455 377.066h-23.718v21.246h23.718v-21.246zm27.495-16.82h-23.718v38.066h23.718v-38.066zm-85.264 16.824h-23.717v21.246h23.717V377.07zm27.493-16.824h-23.717v38.067h23.717v-38.067z" fill="#01A8E8"/><path d="M370.528 398.316h117.441" stroke="#220D4E" stroke-width="2" stroke-linecap="round" stroke-linejoin="round"/></svg>