<svg width="413" height="346" viewBox="0 0 413 346" fill="none" xmlns="http://www.w3.org/2000/svg"><path d="M30.127 290.235c10.112 2.362 21.533 9.964 24.958 15.218 3.808-5.866 10.457-17.492 14.726-24.754 5.105-8.684 17.622-27.872 9.418-34.752-6.612-5.544-17.911 12.894-20.196 10.191-2.284-2.703 14.365-34.015 2.159-38.281-9.198-3.214-13.586 5.806-17.235 6.914-3.648 1.108-3.348-26.538-19.426-21.654-12.247 3.72-.8 23.629-4.026 28.777-1.84 2.937-16.621-5.581-20.195 6.134-3.478 11.404 28.739 22.882 28.626 27.252-.112 4.37-23.383-2.129-25.015 7.598-1.633 9.728 13.713 14.438 26.206 17.357z" fill="#26BB8F"/><path d="M45.663 285.349c5.707 5.904 10.89 13.854 10.838 18.832 5.162-2.293 14.793-7.223 20.886-10.252l.101-.05c7.3-3.63 19.642-9.766 17.236-17.838-1.948-6.535-13.268-.36-13.59-3.144-.322-2.784 26.061-17.805 19.803-25.878-4.717-6.083-12.96-.724-15.894-1.544-2.933-.819 10.651-18.977-2.277-22.589-9.848-2.751-9.282 16.936-13.734 18.998-2.54 1.177-11.47-12.518-19.085-6.213-7.412 6.137 6.486 25.265 4.462 28.139-2.024 2.873-9.944-5.193-15.373.613-5.43 5.806-.425 13.63 6.627 20.926z" fill="#26BB8F"/><path d="M45.663 285.349c5.707 5.904 10.89 13.854 10.838 18.832 5.162-2.293 14.793-7.223 20.886-10.252l.101-.05c7.3-3.63 19.642-9.766 17.236-17.838-1.948-6.535-13.268-.36-13.59-3.144-.322-2.784 26.061-17.805 19.803-25.878-4.717-6.083-12.96-.724-15.894-1.544-2.933-.819 10.651-18.977-2.277-22.589-9.848-2.751-9.282 16.936-13.734 18.998-2.54 1.177-11.47-12.518-19.085-6.213-7.412 6.137 6.486 25.265 4.462 28.139-2.024 2.873-9.944-5.193-15.373.613-5.43 5.806-.425 13.63 6.627 20.926z" fill="#26BB8F"/><path d="M56.173 307.36c8.21-6.549 11.346-11.978-.198-24.976-7.995-9.003-18.87-15.389-15.873-20.355 4.308-7.139 10.644-3.373 16.011 1.85 5.368 5.223 10.59 21.261 17.042 18.182 5.354-2.555 5.11-14.234-2.782-19.156-8.899-5.55-14.167-15.419-9.97-17.952 4.196-2.534 9.012-1.759 15.776 8.775 5.41 8.427 11.89 6.426 13.998 3.161 3.258-5.046-11.118-6.693-12.706-17.121-.702-4.602 1.594-9.996 4.696-13.976" stroke="#220D4E" stroke-width="1.739" stroke-linecap="round"/><path d="M30.529 219.765a.839.839 0 10-1.462.826l1.462-.826zm18.475 74.157a.84.84 0 101.66-.244l-1.66.244zm-6.518-35.261a.838.838 0 101.633-.385l-1.633.385zm4.832 14.408a.84.84 0 00-1.65.31l1.65-.31zm-18.25-52.478c5.844 10.344 10.218 24.515 13.418 38.07l1.633-.385c-3.209-13.596-7.626-27.955-13.59-38.511l-1.462.826zm16.6 52.788c1.523 8.108 2.645 15.844 3.336 20.543l1.66-.244c-.69-4.695-1.817-12.463-3.346-20.609l-1.65.31z" fill="#220D4E"/><path d="M33.469 296.493a1.739 1.739 0 011.71-2.056h42.955a1.74 1.74 0 011.71 2.051l-6.674 36.583a1.74 1.74 0 01-1.711 1.427h-29.49a1.74 1.74 0 01-1.71-1.422l-6.79-36.583z" fill="#fff"/><path d="M33.087 294.437h45.047a1.74 1.74 0 011.711 2.051l-6.935 38.01m-39.116-34.009h40.389m-2.255 14.35l-2.472 14.523" stroke="#220D4E" stroke-width="1.739" stroke-linecap="round"/><path d="M409.048 15.946c-2.246-.037-3.164 3.191-4.617 6.563-.812 1.864-2.641 8.915-3.041 8.677.681-2.993 2.453-20.038.619-25.485-.558-1.668-3.862-2.537-5.069-2.087-2.413.9-4.495 22.413-4.904 26.634-.21 2.292.029-14.36-.288-18.543-.256-3.435-.734-7.306-2.019-9.604-.902-1.622-3.674-1.226-4.905-.947-2.922.678-3.087 8.466-3.094 12.386.007 2.7-.708 11.083-.566 16.261-.997-.086-1.129.106-2.048.126.287-4.19-.591-17.341-1.051-21.635-.326-3.035-1.824-5.71-5.886-4.447-2.813.881-4.727 15.724-4.965 20.69-.086 1.725-.005 7.797.251 10.13a18.27 18.27 0 00-.924.978c-.763-1.22-3.767-7.616-9.603-10.617-1.064-.541-5.052 1.453-4.778 3.246.546 3.455 4.116 10.255 5.782 13.097a1183.77 1183.77 0 004.461 7.466c.034.46.082.904.148 1.36 1.519 10.54 8.638 15.056 19.898 15.654 13.294.707 19.629-7.056 21.789-17.548.56-2.73 2.834-10.333 3.207-11.384 1.243-3.504 4.182-12.893 4.608-18.756.153-1.806-2.049-2.197-3.005-2.215z" fill="#FBEADD" stroke="#220D4E" stroke-width="1.7" stroke-miterlimit="10" stroke-linecap="round" stroke-linejoin="round"/><path d="M366.791 35.914s7.882-2.64 17.181 4.545l-17.181-4.545z" fill="#FBEADD"/><path d="M366.791 35.914s7.882-2.64 17.181 4.545" stroke="#220D4E" stroke-width="1.7" stroke-miterlimit="10" stroke-linecap="round" stroke-linejoin="round"/><path d="M370.959 31.733c.447-.204 16.448-4.935 28.274 1.045l-28.274-1.045z" fill="#FBEADD"/><path d="M370.959 31.733c.447-.204 16.448-4.935 28.274 1.045" stroke="#220D4E" stroke-width="1.7" stroke-miterlimit="10" stroke-linecap="round" stroke-linejoin="round"/><path d="M369.583 51.261L356.775 86.33l29.408 10.573s12.066-31.478 12.662-40.82c.729-11.375-29.262-4.82-29.262-4.82z" fill="#FBEADD"/><path d="M386.241 97.559l13.188-38.114" stroke="#220D4E" stroke-width="1.7" stroke-linecap="round" stroke-linejoin="round"/><path d="M384.335 60.856s-5.25 2.766-12.862-1.36" stroke="#220D4E" stroke-width="1.7" stroke-miterlimit="10" stroke-linecap="round" stroke-linejoin="round"/><path d="M198.891 269.927l-58.324-14.985 33.378-80.01 46.849 46.195-21.903 48.8z" fill="#00C2FF"/><path d="M174.163 175.224s31.747-20.697 70.635-20.169c38.887.529 63.637 10.86 63.637 10.86s3.24 30.431 0 69.092c-1.533 18.284 1.478 76.515-2.35 87.545-3.827 11.029-115.542-3.092-120.467 0-4.924 3.092-5.565-46.36-5.565-66.553 0-40.025-5.89-80.775-5.89-80.775z" fill="#00C2FF"/><path d="M181.004 212.955l-.001 58.754m124.692-108.555l10.753 12.494m-15.632-10.749l4.081 14.526" stroke="#220D4E" stroke-width="1.7" stroke-linecap="round" stroke-linejoin="round"/><path d="M209.37 143.354l3.287 23.112s11.199 7.987 26.715 6.114c15.517-1.874 22.976-10.946 22.976-13.847l-4.987-62.263-47.991 46.884z" fill="#FBEADD"/><path d="M221.072 155.905c-5.22 1.702-9.241-1.318-10.525-2.9l-2.354-13.181c1.925 0 2.952-.211 5.006 0 2.567.264 7.829 2.505 12.193 0 3.491-2.003 13.649-8.216 19.297-13.972-.941 3.515-3.594 9.622-6.674 13.972-4.209 5.944-9.755 13.738-16.943 16.081z" fill="#220D4E"/><path d="M260.789 72.482c-3.115 1.252-5.456 3.709-7.055 5.951-1.137-5.82-2.291-11.293-3.082-15.43-2.308-12.199-19.022-13.798-34.863-11.457-14.506 2.143-32.555 12.116-33.215 17.391-.659 5.275-.082 13.765.907 23.656 2.044 20.507 6.841 40.635 19.533 49.866 10.339 7.52 29.075.678 35.009-3.278 5.934-3.957 17.986-18.564 19.304-29.938.248-2.061.066-6.594-.164-9.562 3.247-1.401 11.373-4.632 14.505-12.363 4.616-11.375-4.286-17.474-10.879-14.836z" fill="#FBEADD" stroke="#220D4E" stroke-width="1.679" stroke-miterlimit="10" stroke-linecap="round" stroke-linejoin="round"/><path d="M199.206 103.046c1.143 0 2.069-2.127 2.069-4.751 0-2.624-.926-4.751-2.069-4.751-1.143 0-2.069 2.127-2.069 4.751 0 2.624.926 4.751 2.069 4.751zm35.589-6.61c1.143 0 2.069-2.127 2.069-4.751 0-2.624-.926-4.751-2.069-4.751-1.143 0-2.069 2.127-2.069 4.751 0 2.624.926 4.751 2.069 4.751z" fill="#220D4E"/><path d="M222.32 114.874s-7.484 1.788-10.595 2.751c.066-8.618 0-17.238 0-25.856m3.532 31.392s9.422 5.136 15.829 1.218c7.767-4.748 6.456-11.455 6.456-11.455m-48.681-33.839s3.31-2.2 9.931-1.523m28.141-7.152s3.31-3.347 9.104-1.522" stroke="#220D4E" stroke-width="1.679" stroke-miterlimit="10" stroke-linecap="round" stroke-linejoin="round"/><path d="M158.747 50.057s3.139 25.597 27.86 21.549c24.722-4.048 52.975-13.452 52.975-13.452s3.403 21.371 10.771 21.862c5.972 0 6.899-2.645 7.672-9.847.774-7.201 4.041-21.68-12.164-34.477-16.205-12.799-38.195-6.4-46.304 0-8.11 6.399-21.975 1.828-21.975 1.828s1.046 7.444-4.447 11.231c-5.494 3.788-14.388 1.306-14.388 1.306z" fill="#220D4E"/><path d="M193.206 114.613c9.256 0 16.76-7.583 16.76-16.938 0-9.355-7.504-16.938-16.76-16.938-9.257 0-16.76 7.583-16.76 16.938 0 9.355 7.503 16.938 16.76 16.938zm42.831-7.436c9.371 0 16.967-7.491 16.967-16.732 0-9.24-7.596-16.731-16.967-16.731-9.37 0-16.967 7.491-16.967 16.731 0 9.241 7.597 16.732 16.967 16.732zm-27.726-16.525s4.362-3.373 11.587-1.499" stroke="#220D4E" stroke-width="1.679" stroke-miterlimit="10" stroke-linecap="round" stroke-linejoin="round"/><path d="M258.816 115.274l3.532 39.961" stroke="#220D4E" stroke-width="1.679" stroke-linecap="round" stroke-linejoin="round"/><path d="M275.866 168.786l56.274-25.569 29.848-70.891 33.137 8.073-20.489 75.306s-66.473 65.558-84.047 77.875c-17.574 12.317-14.723-64.794-14.723-64.794z" fill="#00C2FF"/><path d="M359.684 71.636l25.143 6.775" stroke="#220D4E" stroke-width="1.7" stroke-linecap="round" stroke-linejoin="round"/><path d="M297.247 323.083H108.524a2.958 2.958 0 100 5.917h188.723a2.96 2.96 0 000-5.917z" fill="#5346F6"/><path d="M79.832 236.922H219.44L248.987 329H109.379l-29.547-92.078z" fill="#5346F6"/><path d="M76.391 236.922H216L245.546 329H105.937l-29.546-92.078z" fill="#3B2FCD"/><path d="M160.608 294.671c6.021 0 10.901-4.288 10.901-9.578 0-5.29-4.88-9.578-10.901-9.578s-10.901 4.288-10.901 9.578c0 5.29 4.88 9.578 10.901 9.578z" fill="#26BB8F"/><path d="M321.483 309.624c2.352-1.454 7.884-5.194 10.997 1.35 2.981 6.269-11.1 19.319-13.175 20.462" stroke="#FFC107" stroke-width="1.7"/><path d="M275.703 293.911h50.209l-7.786 51.309h-34.502l-7.921-51.309z" fill="#FFC107"/><path d="M275.703 293.911h7.573l11.175 51.469h-11.175l-7.573-51.469z" fill="#FFAC25"/></svg>